<svg version="1.2" xmlns="http://www.w3.org/2000/svg" viewBox="0 0 168 149" width="168" height="149">
	<title>vite-svg</title>
	<style>
		.s0 { fill: #ffffff } 
	</style>
	<g id="Layer">
		<g id="Layer">
			<g id="Layer">
				<path id="Layer" class="s0" d="m-26.1 229v-1.2h-7.9v11.9h1.5v-5.6h5.8v-1.2h-5.8v-3.9z"/>
				<path id="Layer" class="s0" d="m-13.3 227.8v11.9h1.5v-11.9z"/>
				<path id="Layer" class="s0" d="m11.3 227.8v9.8l-6.2-9.8h-1.7v11.9h1.4v-9.9l6.1 9.9h1.8v-11.9z"/>
				<path id="Layer" fill-rule="evenodd" class="s0" d="m34.7 239.7h-4v-11.9h4c3.8 0 5.5 1.8 5.5 5.9 0 4.2-1.7 6-5.5 6zm-2.6-10.7v9.5h2.6c2.8 0 3.9-1.4 3.9-4.8 0-3.3-1.1-4.7-3.9-4.7z"/>
				<path id="Layer" class="s0" d="m72.1 239.7h1.4v-9.9l4.1 9.6 0.1 0.3h0.9l0.2-0.4 4-9.5v9.9h1.4v-11.9h-0.8-0.6-0.6l-4 9.6-4.1-9.6h-0.6-0.6-0.8z"/>
				<path id="Layer" fill-rule="evenodd" class="s0" d="m114 233.7c0 4.4-1.7 6.3-5.7 6.3-3.9 0-5.6-1.9-5.6-6.3 0-4.4 1.7-6.2 5.6-6.2 4 0 5.7 1.8 5.7 6.2zm-9.8 0c0 3.6 1.3 5 4.1 5 2.9 0 4.1-1.4 4.1-5 0-3.5-1.2-5-4.1-5-2.8 0-4.1 1.5-4.1 5z"/>
				<path id="Layer" class="s0" d="m131.7 227.8h-1.5l4.1 11.9h2.1l4.1-11.9h-1.5l-3.6 10.8z"/>
				<path id="Layer" class="s0" d="m154.4 227.8v11.9h1.5v-11.9z"/>
				<path id="Layer" class="s0" d="m178.5 229v-1.2h-8v11.9h8v-1.2h-6.5v-4.4h5.8v-1.2h-5.8v-3.9z"/>
				<path id="Layer" class="s0" d="m194.7 230.8c0-1.6 0.8-2.2 2.9-2.2 2 0 2.9 0.8 2.9 2.6h1.4c0-2.6-1.3-3.7-4.3-3.7-3 0-4.3 1-4.3 3.6 0 4.2 7.3 2.2 7.3 5.5 0 1.6-0.8 2.3-3 2.3-2.2 0-3.1-0.8-3.1-2.6h-1.4c0 2.6 1.4 3.7 4.5 3.7 3.1 0 4.4-1.1 4.4-3.6 0-4.5-7.3-2.5-7.3-5.6z"/>
			</g>
			<g id="Layer">
				<path id="Layer" class="s0" d="m-78.4 176.5v14.2h-10.9v-14.2h-13v40.7h13v-17.2h10.9v17.2h13.1v-40.7z"/>
				<path id="Layer" class="s0" d="m-57.8 217.2h12.3v-25.7l6.9 23.8 0.7 1.9h7.8l1-2.9 6.5-22.8v25.7h12.4v-40.7h-7.2-5.2-4.5l-6.6 24-6.6-24h-5.2-5.2-7.1z"/>
				<path id="Layer" class="s0" d="m28.2 185.1v-8.6h-30.9v40.7h30.9v-8.6h-17.8v-8h15.5v-8.6h-15.5v-6.9z"/>
				<path id="Layer" fill-rule="evenodd" class="s0" d="m50.4 217.2h-17.5v-40.7h17.5c15 0 21.4 6.1 21.4 20.3 0 14.3-6.4 20.4-21.4 20.4zm-4.5-32.1v23.5h3.8c5.8 0 8.4-3.6 8.4-11.8 0-8.2-2.5-11.7-8.4-11.7z"/>
				<path id="Layer" class="s0" d="m76.9 217.2h12.3v-25.7l7 23.8 0.6 1.9h7.8l1-2.9 6.6-22.8v25.7h12.3v-40.7h-7.2-5.1-4.6l-6.5 24-6.6-24h-5.3-5.1-7.2z"/>
				<path id="Layer" fill-rule="evenodd" class="s0" d="m173.6 196.8c0 15.1-6.6 21.6-22 21.6-15.3 0-22-6.5-22-21.6 0-15 6.7-21.5 22-21.5 15.4 0 22 6.5 22 21.5zm-30.2 0c0 8.6 2.5 12.3 8.2 12.3 5.8 0 8.3-3.7 8.3-12.3 0-8.5-2.5-12.2-8.3-12.2-5.7 0-8.2 3.7-8.2 12.2z"/>
				<path id="Layer" class="s0" d="m187.5 176.5h-13l11.1 40.7h18.9l11.1-40.7h-13l-7.6 31.7z"/>
				<path id="Layer" class="s0" d="m219 176.5v40.7h13v-40.7z"/>
				<path id="Layer" class="s0" d="m270.3 185.1v-8.6h-30.8v40.7h30.8v-8.6h-17.8v-8h15.5v-8.6h-15.5v-6.9z"/>
			</g>
			<g id="Layer">
				<g id="Layer">
					<path id="Layer" fill-rule="evenodd" class="s0" d="m108.6 48.8q7.9-5.9 18-6 0.1 0 0.2 0 12.7 0 21.6 9 9 9 9 21.6 0 12.7-9 21.6-8.9 9-21.6 9-10.2 0-18.2-6 6 8 6 18.1 0 0.1 0 0.1 0 12.7-9 21.6-8.9 9-21.6 9-12.7 0-21.6-9-9-8.9-9-21.6 0-10.2 6-18.2-8 6-18.1 6-0.1 0-0.1 0-12.7 0-21.6-9-9-8.9-9-21.6 0-12.6 9-21.6 8.9-9 21.6-9 10.2 0 18.2 6-6-8-6-18.2 0-12.6 9-21.6 8.9-9 21.6-9 12.7 0 21.6 9 9 8.9 9 21.6 0 10.3-6 18.2zm-4.4 0q0-0.2 0.1-0.3 0.1-0.2 0.2-0.3 6.5-7.6 6.5-17.6 0-11.2-7.9-19.1-7.9-7.9-19.1-7.9-11.2 0-19.1 7.9-7.9 7.9-7.9 19.1 0 10 6.5 17.6 0.1 0.1 0.2 0.2 0.1 0.2 0.1 0.3 0.1 0.2 0.1 0.4 0 0.1 0 0.3 0 0.2 0 0.3-0.1 0.2-0.1 0.3-0.1 0.2-0.2 0.3-0.1 0.2-0.2 0.3l-2.2 2.2q-0.1 0.1-0.2 0.2-0.2 0.1-0.3 0.2-0.2 0-0.4 0.1-0.1 0-0.3 0-0.2 0-0.3 0-0.2 0-0.3-0.1-0.2 0-0.4-0.1-0.1-0.1-0.2-0.2-7.6-6.5-17.6-6.5-11.2 0-19.1 7.9-7.9 7.9-7.9 19.1 0 11.2 7.9 19.1 7.9 7.9 19 7.9 0 0 0.1 0 10 0 17.6-6.5 0.1-0.1 0.2-0.2 0.2-0.1 0.3-0.1 0.2-0.1 0.4-0.1 0.1 0 0.3 0 0.2 0 0.3 0 0.2 0.1 0.3 0.1 0.2 0.1 0.3 0.2 0.2 0.1 0.3 0.2l2.2 2.2q0.1 0.1 0.2 0.3 0.1 0.1 0.2 0.3 0 0.1 0.1 0.3 0 0.1 0 0.3 0 0.2 0 0.3 0 0.2-0.1 0.4-0.1 0.1-0.1 0.3-0.1 0.1-0.2 0.2-6.5 7.6-6.5 17.6 0 11.2 7.9 19.1 7.9 7.9 19.1 7.9 11.2 0 19.1-7.9 7.9-7.9 7.9-19 0 0 0-0.1 0-9.9-6.5-17.5-0.1-0.2-0.2-0.3-0.1-0.2-0.1-0.3-0.1-0.2-0.1-0.3 0-0.2 0-0.4 0-0.1 0-0.3 0.1-0.2 0.1-0.3 0.1-0.2 0.2-0.3 0.1-0.2 0.2-0.3l2.2-2.2q0.1-0.1 0.2-0.2 0.2-0.1 0.3-0.1 0.2-0.1 0.4-0.1 0.1-0.1 0.3-0.1 0.2 0 0.3 0 0.2 0.1 0.3 0.1 0.2 0.1 0.4 0.1 0.1 0.1 0.2 0.2 7.6 6.5 17.6 6.5 11.2 0 19.1-7.9 7.9-7.9 7.9-19.1 0-11.2-7.9-19.1-7.9-7.9-18.9-7.9-0.1 0-0.2 0-10 0-17.6 6.5-0.1 0.1-0.2 0.2-0.2 0.1-0.3 0.1-0.2 0.1-0.4 0.1-0.1 0-0.3 0-0.2 0-0.3 0-0.2 0-0.3-0.1-0.2-0.1-0.3-0.2-0.2-0.1-0.3-0.2l-2.2-2.2q-0.1-0.1-0.2-0.2-0.1-0.2-0.2-0.3 0-0.2-0.1-0.3 0-0.2 0-0.4 0-0.1 0-0.3 0-0.2 0.1-0.3z"/>
					<path id="Layer" fill-rule="evenodd" class="s0" d="m89 35.6q2.1-2.1 2.1-5 0-7.1-7.1-7.1-7.1 0-7.1 7.1 0 2.9 2.1 5l29 29 5-5q5.7-5.7 13.7-5.7 0 0 0.1 0 8.1 0 13.8 5.7 5.7 5.7 5.7 13.8 0 8.1-5.7 13.8-5.7 5.7-13.8 5.7-8.1 0-13.8-5.7-0.1-0.1-0.2-0.3-0.1-0.1-0.2-0.3-0.1-0.1-0.1-0.3 0-0.2 0-0.3 0-0.2 0-0.4 0-0.2 0.1-0.3 0.1-0.2 0.2-0.3 0.1-0.2 0.2-0.3l6.3-6.3q0.1-0.1 0.2-0.2 0.2-0.1 0.3-0.2 0.2 0 0.4-0.1 0.2 0 0.3 0 0.2 0 0.4 0 0.2 0.1 0.3 0.1 0.2 0.1 0.3 0.2 0.2 0.1 0.3 0.2 2.1 2.1 5 2.1 7.1 0 7.1-7.1 0-7-7-7.1 0 0-0.1 0-2.9 0-5 2.1l-29 29 5 5q5.7 5.7 5.7 13.7 0 0.1 0 0.1 0 8.1-5.7 13.8-5.7 5.7-13.8 5.7-8.1 0-13.8-5.7-5.7-5.7-5.7-13.8 0-8.1 5.7-13.8 0.1-0.1 0.3-0.2 0.1-0.1 0.3-0.2 0.1 0 0.3-0.1 0.2 0 0.4 0 0.1 0 0.3 0 0.2 0.1 0.3 0.1 0.2 0.1 0.4 0.2 0.1 0.1 0.2 0.2l6.3 6.3q0.1 0.1 0.2 0.3 0.1 0.1 0.2 0.3 0 0.1 0.1 0.3 0 0.2 0 0.3 0 0.2 0 0.4 0 0.2-0.1 0.3-0.1 0.2-0.2 0.3-0.1 0.2-0.2 0.3-2.1 2.1-2.1 5 0 7.1 7.1 7.1 7 0 7.1-7 0 0 0-0.1 0-2.9-2.1-5l-29-29-5 5q-5.7 5.7-13.7 5.7 0 0-0.1 0-8.1 0-13.8-5.7-5.7-5.7-5.7-13.8 0-8.1 5.7-13.8 5.7-5.7 13.8-5.7 8.1 0 13.8 5.7 0.1 0.1 0.2 0.3 0.1 0.1 0.2 0.3 0.1 0.1 0.1 0.3 0 0.2 0 0.4 0 0.1 0 0.3 0 0.2-0.1 0.4-0.1 0.1-0.2 0.3-0.1 0.1-0.2 0.2l-6.3 6.3q-0.1 0.1-0.2 0.2-0.2 0.1-0.4 0.2-0.1 0.1-0.3 0.1-0.2 0-0.3 0-0.2 0-0.4 0-0.2 0-0.3-0.1-0.2-0.1-0.3-0.2-0.2-0.1-0.3-0.2-2.1-2.1-5-2.1-7.1 0-7.1 7.1 0 7 7 7.1 0 0 0.1 0 2.9 0 5-2.1l29-29-5-5q-5.7-5.7-5.7-13.8 0-8.1 5.7-13.8 5.7-5.7 13.8-5.7 8.1 0 13.8 5.7 5.7 5.7 5.7 13.8 0 8.1-5.7 13.8-0.1 0.1-0.3 0.2-0.1 0.1-0.3 0.2-0.1 0.1-0.3 0.1-0.2 0-0.4 0-0.1 0-0.3 0-0.2 0-0.3-0.1-0.2-0.1-0.4-0.2-0.1-0.1-0.2-0.2l-6.3-6.3q-0.3-0.2-0.4-0.5-0.1-0.4-0.1-0.7 0-0.4 0.1-0.7 0.1-0.3 0.4-0.6zm10.2 37.8l-15.2-15.2-15.2 15.2 15.2 15.2z"/>
				</g>
			</g>
		</g>
	</g>
	<g id="Layer" style="opacity: 0">
		<path id="Layer" fill-rule="evenodd" class="s0" d="m-61.5 255.3q0.5 0.6 0.9 1.3 0.5 0.6 0.8 1.3 0.3 0.7 0.5 1.5 0.3 0.7 0.4 1.5 0.1 0.4 0.1 0.7 0 0.4 0 0.8 0.1 0.4 0.1 0.7-0.1 0.4-0.1 0.8 0 0.4-0.1 0.7 0 0.4-0.1 0.8-0.1 0.3-0.2 0.7-0.1 0.4-0.2 0.7-0.2 0.4-0.3 0.7-0.2 0.4-0.4 0.7-0.1 0.4-0.3 0.7-0.2 0.3-0.4 0.6-0.3 0.4-0.5 0.7-0.3 0.3-0.5 0.6-0.3 0.3-0.6 0.5-0.3 0.3-0.6 0.6-0.3 0.2-0.6 0.4-0.3 0.3-0.6 0.5-0.4 0.2-0.7 0.4-0.4 0.2-0.7 0.3-0.4 0.2-0.7 0.3-0.4 0.2-0.7 0.3-0.4 0.1-0.8 0.2-0.3 0.1-0.7 0.1-0.4 0.1-0.8 0.1-0.3 0.1-0.7 0.1-0.4 0-0.8 0-0.3 0-0.7 0-0.4-0.1-0.8-0.1-0.3-0.1-0.7-0.2-0.4 0-0.7-0.2-0.4-0.1-0.7-0.2-0.4-0.1-0.8-0.3-0.3-0.1-0.7-0.3-0.3-0.2-0.6-0.3-0.4-0.2-0.7-0.5-0.6-0.4-1.2-1-0.6-0.5-1.1-1.1-0.5-0.6-0.9-1.3-0.4-0.6-0.8-1.4-0.1-0.3-0.3-0.7-0.1-0.3-0.2-0.7-0.1-0.3-0.2-0.7-0.1-0.4-0.2-0.8 0-0.3-0.1-0.7 0-0.4 0-0.8 0-0.3 0-0.7 0-0.4 0-0.8 0-0.3 0.1-0.7 0.1-0.4 0.1-0.8 0.1-0.3 0.2-0.7 0.1-0.3 0.3-0.7 0.2-0.7 0.6-1.4 0.3-0.7 0.8-1.3 0.4-0.7 0.9-1.2 0.6-0.6 1.2-1.1 0.3-0.2 0.6-0.5 0.3-0.2 0.6-0.4 0.4-0.2 0.7-0.4 0.4-0.2 0.7-0.4 0.4-0.1 0.7-0.3 0.4-0.1 0.7-0.2 0.4-0.1 0.8-0.2 0.4-0.1 0.7-0.2 0.4-0.1 0.8-0.1 0.4 0 0.7-0.1 0.4 0 0.8 0 0.4 0.1 0.7 0.1 0.8 0.1 1.5 0.2 0.8 0.2 1.5 0.4 0.7 0.3 1.4 0.6 0.7 0.4 1.3 0.8 0.3 0.2 0.6 0.5 0.3 0.2 0.6 0.5 0.3 0.2 0.6 0.5 0.3 0.3 0.5 0.6m-15.8 13.4q0.3 0.3 0.6 0.6 0.4 0.3 0.7 0.6 0.4 0.3 0.7 0.5 0.4 0.3 0.8 0.5 0.4 0.2 0.8 0.3 0.4 0.2 0.8 0.3 0.4 0.1 0.8 0.2 0.5 0.1 0.9 0.1 0.4 0.1 0.9 0 0.4 0 0.8 0 0.4-0.1 0.9-0.1 0.4-0.1 0.8-0.3 0.4-0.1 0.8-0.3 0.4-0.1 0.8-0.3 0.4-0.2 0.8-0.5 0.4-0.3 0.7-0.5 0.3-0.3 0.7-0.6 0.3-0.4 0.6-0.7 0.2-0.4 0.5-0.7 0.2-0.4 0.4-0.8 0.2-0.4 0.4-0.8 0.2-0.4 0.3-0.8 0.1-0.4 0.2-0.9 0.1-0.4 0.1-0.8 0.1-1.3-0.1-2.6-0.3-1.4-1-2.5-0.6-1.2-1.6-2.1-0.9-1-2.1-1.6-0.8-0.4-1.6-0.6-0.9-0.2-1.7-0.3-0.9-0.1-1.7 0-0.9 0.1-1.7 0.4-0.9 0.2-1.7 0.7-0.8 0.4-1.5 1-0.6 0.5-1.2 1.2-0.6 0.7-1 1.5-0.4 0.8-0.6 1.6-0.2 0.9-0.3 1.7-0.1 0.9 0 1.8 0.1 0.8 0.4 1.6 0.1 0.5 0.3 0.9 0.1 0.4 0.4 0.8 0.2 0.4 0.4 0.7 0.3 0.4 0.6 0.8zm14.4-4.6q-0.2 0.3-0.3 0.6-0.1 0.3-0.3 0.6-0.1 0.3-0.3 0.5-0.2 0.3-0.3 0.6-0.2 0.3-0.4 0.5-0.3 0.3-0.5 0.6-0.2 0.2-0.5 0.4-0.2 0.3-0.5 0.5-0.2 0.2-0.5 0.4-0.3 0.2-0.6 0.4-0.3 0.2-0.6 0.3-0.3 0.1-0.6 0.3-0.7 0.2-1.3 0.3-0.7 0-1.3 0-0.7-0.1-1.3-0.3-0.7-0.2-1.2-0.5-0.7-0.4-1.3-0.9-0.6-0.5-1.1-1-0.5-0.6-0.9-1.3-0.3-0.7-0.6-1.4-0.1-0.3-0.2-0.6-0.1-0.4-0.1-0.7 0-0.3-0.1-0.7 0-0.3 0.1-0.6 0-0.4 0.1-0.7 0-0.3 0.1-0.6 0.1-0.3 0.2-0.6 0.2-0.3 0.3-0.6 0.2-0.3 0.4-0.6 0.2-0.3 0.4-0.5 0.2-0.3 0.5-0.6 0.2-0.2 0.5-0.4 0.1-0.1 0.2-0.2 0.2-0.1 0.3-0.2 0.1-0.1 0.3-0.2 0.1-0.1 0.3-0.2 0.1-0.1 0.2-0.2 0.2-0.1 0.3-0.2 0.2 0 0.3-0.1 0.1-0.1 0.3-0.2 0.1 0 0.3-0.1 0.1-0.1 0.3-0.1 0.1-0.1 0.3-0.1 0.1-0.1 0.3-0.1 0.1-0.1 0.3-0.1 0.2-0.1 0.3-0.1 0.2-0.1 0.4-0.1 0.1-0.1 0.3-0.1l2 2.4q-0.2 0-0.4 0-0.2 0-0.4 0.1-0.2 0-0.4 0-0.2 0-0.4 0.1-0.1 0-0.3 0-0.1 0.1-0.3 0.1-0.1 0-0.3 0.1-0.1 0-0.3 0.1-0.1 0-0.3 0.1-0.1 0-0.2 0.1-0.1 0.1-0.3 0.1-0.1 0.1-0.2 0.2-0.1 0-0.2 0.1-0.2 0.1-0.3 0.2-0.1 0.1-0.2 0.2-0.1 0-0.2 0.1-0.2 0.2-0.4 0.3-0.1 0.2-0.3 0.4-0.1 0.2-0.2 0.3-0.2 0.2-0.3 0.4-0.1 0.2-0.1 0.4-0.1 0.2-0.2 0.4 0 0.2-0.1 0.4 0 0.2 0 0.4 0 0.2 0 0.4 0 0.2 0 0.4 0.1 0.2 0.1 0.4 0.1 0.2 0.1 0.4 0.2 0.5 0.5 0.9 0.2 0.4 0.5 0.7 0.3 0.4 0.7 0.7 0.3 0.3 0.7 0.6 0.2 0.1 0.4 0.1 0.2 0.1 0.4 0.2 0.2 0.1 0.4 0.1 0.2 0.1 0.4 0.1 0.2 0 0.4 0 0.2 0 0.4 0 0.2 0 0.4-0.1 0.2 0 0.4-0.1 0.2-0.1 0.4-0.1 0.2-0.1 0.4-0.2 0.2-0.2 0.4-0.3 0.2-0.1 0.4-0.3 0.1-0.1 0.2-0.2 0.1-0.1 0.2-0.2 0.1-0.1 0.2-0.2 0.1-0.1 0.2-0.2 0.1-0.1 0.2-0.2 0.1-0.1 0.1-0.2 0.1-0.1 0.2-0.2 0.1-0.2 0.1-0.3 0.1-0.1 0.2-0.3 0.1-0.1 0.1-0.3 0.1-0.1 0.2-0.2 0-0.2 0.1-0.3 0-0.2 0.1-0.4 0.1-0.2 0.1-0.4 0.1-0.2 0.1-0.3 0.1-0.2 0.1-0.4l2 2.3z"/>
		<path id="Layer" class="s0" d="m-44 234q-0.7 0.2-1.8 0.6-0.3 0.1-0.6 0.2-0.3 0.1-0.6 0.2-0.3 0.2-0.6 0.3-0.3 0.1-0.6 0.3-0.4 0.1-0.7 0.3-0.4 0.2-0.7 0.3-0.4 0.2-0.7 0.4-0.4 0.2-0.7 0.4-0.4 0.2-0.7 0.4-0.4 0.3-0.7 0.5-0.3 0.3-0.7 0.5-0.3 0.3-0.6 0.5-1.1 0.9-1.8 1.6-0.1 0.2-0.2 0.3-0.2 0.2-0.3 0.3-0.2 0.2-0.3 0.3-0.1 0.2-0.2 0.3-0.1 0.1-0.2 0.2-0.1 0.2-0.2 0.3 0 0.1-0.1 0.2-0.1 0.1-0.1 0.3-0.1 0-0.1 0.1 0 0.1-0.1 0.2 0 0 0 0.1 0 0.1-0.1 0.2 0 0 0 0.1 0 0.1 0 0.1 0 0.1 0 0.1 0 0.1 0 0.2 0.1 0 0.1 0 0 0.1 0 0.1 0 0 0.1 0.1 0 0 0 0.1 0.1 0.1 0.2 0.1 0.1 0.1 0.3 0.2 0.1 0 0.2 0 0.2 0 0.3 0 0.2 0 0.4 0 0.2-0.1 0.4-0.1 0.2-0.1 0.4-0.1 0.1-0.1 0.3-0.2 0.9-0.3 2-0.9l2.2-1.1q1.2-0.7 2.5-1.3 1.3-0.7 2.6-1.2 0.3-0.1 0.7-0.2 0.3-0.2 0.6-0.3 0.3-0.1 0.7-0.1 0.3-0.1 0.6-0.2 0.3-0.1 0.6-0.1 0.3-0.1 0.6-0.1 0.3-0.1 0.7-0.1 0.3 0 0.6 0 0.3 0 0.6 0 0.2 0.1 0.5 0.1 0.3 0.1 0.6 0.2 0.3 0.1 0.5 0.2 0.3 0.1 0.6 0.3 0.2 0.1 0.5 0.3 0.2 0.2 0.4 0.4 0.2 0.2 0.4 0.5 0.3 0.2 0.5 0.5 0.2 0.4 0.4 0.7 0.1 0.3 0.3 0.7 0.1 0.3 0.2 0.7 0.1 0.3 0.1 0.6 0.1 0.3 0.1 0.7 0 0.3 0 0.6 0 0.3-0.1 0.7-0.1 0.3-0.1 0.6-0.1 0.3-0.2 0.7-0.2 0.3-0.3 0.6-0.1 0.3-0.3 0.6-0.2 0.3-0.4 0.6-0.1 0.3-0.4 0.6-0.2 0.3-0.4 0.6-0.2 0.3-0.4 0.6-0.2 0.2-0.5 0.5-0.2 0.3-0.5 0.6-0.2 0.2-0.5 0.5-0.2 0.3-0.5 0.5-1.1 1-2.1 1.9-0.6 0.5-1.3 1-0.6 0.5-1.3 1-0.6 0.4-1.3 0.9-0.7 0.4-1.4 0.8-0.6 0.3-1.2 0.6-0.6 0.3-1.2 0.6-0.7 0.3-1.3 0.6-0.6 0.2-1.2 0.5l-3.7-4.3q0.8-0.2 1.4-0.4 0.7-0.2 1.4-0.4 0.7-0.2 1.3-0.5 0.7-0.3 1.3-0.6 0.8-0.4 1.5-0.8 0.7-0.4 1.3-0.8 0.7-0.5 1.4-1 0.6-0.4 1.2-1 0.4-0.2 0.7-0.5 0.3-0.3 0.6-0.6 0.3-0.2 0.6-0.5 0.2-0.3 0.5-0.6 0.2-0.2 0.4-0.4 0.1-0.2 0.3-0.5 0.1-0.2 0.2-0.4 0.2-0.2 0.3-0.4 0.1-0.2 0.1-0.3 0.1-0.2 0.1-0.3 0-0.2 0.1-0.3 0-0.2 0-0.3 0-0.1-0.1-0.2 0-0.1 0-0.2 0-0.1-0.1-0.2 0-0.1-0.1-0.2-0.1-0.1-0.2-0.2-0.1 0-0.3-0.1-0.1-0.1-0.2-0.1-0.2 0-0.3 0-0.2 0-0.4 0-0.2 0.1-0.4 0.1-0.2 0.1-0.4 0.1-0.2 0.1-0.4 0.2-0.2 0-0.5 0.1-0.2 0.1-0.5 0.3-0.2 0.1-0.5 0.2-0.2 0.1-0.5 0.2-1 0.6-2.2 1.2l-2.5 1.3q-1.3 0.7-2.5 1.2-0.4 0.2-0.7 0.3-0.3 0.1-0.6 0.2-0.3 0.1-0.6 0.2-0.4 0.1-0.7 0.2-0.3 0.1-0.6 0.1-0.3 0.1-0.6 0.1-0.3 0.1-0.6 0.1-0.3 0-0.6 0-0.3 0-0.6 0-0.3 0-0.5-0.1-0.3 0-0.6-0.1-0.2-0.1-0.5-0.2-0.3-0.1-0.5-0.3-0.3-0.1-0.5-0.3-0.3-0.2-0.5-0.4-0.2-0.2-0.4-0.5-0.2-0.2-0.4-0.5-0.2-0.3-0.4-0.6-0.2-0.3-0.3-0.6-0.1-0.3-0.2-0.7-0.1-0.3-0.1-0.6-0.1-0.3-0.1-0.6 0-0.3 0-0.6 0-0.3 0.1-0.6 0-0.3 0.1-0.6 0.1-0.3 0.2-0.6 0.1-0.3 0.2-0.6 0.2-0.3 0.3-0.6 0.2-0.3 0.3-0.6 0.2-0.2 0.4-0.5 0.2-0.3 0.4-0.6 0.2-0.2 0.4-0.5 0.2-0.3 0.4-0.5 0.3-0.3 0.5-0.6 0.2-0.2 0.5-0.5 0.2-0.2 0.4-0.5 1-1 2-1.7 1.1-0.9 2.3-1.7 1.2-0.9 2.4-1.6 1.2-0.7 2.4-1.3c0.8-0.4 1.6-0.7 2.3-1z"/>
		<path id="Layer" class="s0" d="m-4.2 222.6l-10.6-12.7 3.9 18.3-4.7 3.9-17.3-7 10.6 12.6-4.8 4.1-15.1-18 6.6-5.5 18.7 7.5-4.2-19.7 6.6-5.6 15.1 18-4.8 4.1"/>
		<path id="Layer" fill-rule="evenodd" class="s0" d="m17.8 198.2l-10 8.5 1.2 4.8-5.4 4.5-5.7-25.9 5.4-4.5 24.5 10-5.4 4.6-4.6-2m-11.2 3.4l6.6-5.5-8.9-3.8z"/>
		<path id="Layer" class="s0" d="m36.5 166.4q-0.7 0.2-1.8 0.5-0.3 0.2-0.6 0.3-0.3 0.1-0.6 0.2-0.3 0.1-0.6 0.3-0.3 0.1-0.6 0.2-0.4 0.2-0.7 0.4-0.4 0.2-0.7 0.3-0.3 0.2-0.7 0.4-0.3 0.2-0.6 0.4-0.4 0.2-0.7 0.5-0.4 0.2-0.7 0.4-0.4 0.3-0.7 0.5-0.3 0.3-0.6 0.6-1.1 0.8-1.8 1.5-0.1 0.2-0.3 0.3-0.1 0.2-0.2 0.3-0.2 0.2-0.3 0.3-0.2 0.2-0.3 0.4-0.1 0.1-0.1 0.2-0.1 0.1-0.2 0.2-0.1 0.1-0.1 0.2-0.1 0.1-0.2 0.3 0 0 0 0.1-0.1 0.1-0.1 0.2 0 0.1-0.1 0.1 0 0.1 0 0.2 0 0.1 0 0.1 0 0.1 0 0.1 0 0.1 0 0.2 0 0 0 0.1 0 0 0 0.1 0.1 0 0.1 0 0 0.1 0 0.1 0.1 0 0.1 0.1 0.1 0.1 0.2 0.2 0.1 0 0.2 0.1 0.2 0 0.3 0 0.2 0.1 0.3 0 0.2 0 0.4 0 0.2 0 0.4-0.1 0.1 0 0.3-0.1 0.2-0.1 0.4-0.1 0.9-0.4 2-0.9l2.3-1.2q1.2-0.7 2.5-1.3 1.3-0.7 2.5-1.2 0.4-0.1 0.7-0.2 0.3-0.1 0.6-0.2 0.4-0.1 0.7-0.2 0.3-0.1 0.6-0.2 0.3-0.1 0.6-0.1 0.4-0.1 0.7-0.1 0.3-0.1 0.6-0.1 0.3 0 0.6 0 0.3 0 0.6 0.1 0.3 0 0.5 0.1 0.3 0 0.6 0.1 0.3 0.1 0.5 0.2 0.3 0.1 0.6 0.3 0.2 0.1 0.5 0.3 0.2 0.2 0.4 0.4 0.2 0.2 0.4 0.5 0.3 0.2 0.5 0.6 0.2 0.3 0.4 0.6 0.2 0.3 0.3 0.7 0.1 0.3 0.2 0.7 0.1 0.3 0.2 0.6 0 0.4 0 0.7 0 0.3 0 0.6 0 0.4-0.1 0.7 0 0.3-0.1 0.6-0.1 0.4-0.2 0.7-0.1 0.3-0.3 0.6-0.1 0.3-0.3 0.6-0.1 0.3-0.3 0.6-0.2 0.3-0.4 0.6-0.2 0.3-0.5 0.6-0.2 0.3-0.4 0.6-0.2 0.3-0.5 0.5-0.2 0.3-0.5 0.6-0.2 0.3-0.5 0.5-0.2 0.3-0.5 0.5-1.1 1-2.1 1.9-0.6 0.5-1.3 1-0.6 0.5-1.3 1-0.6 0.4-1.3 0.9-0.7 0.4-1.4 0.8-0.6 0.3-1.2 0.6-0.6 0.4-1.2 0.6-0.6 0.3-1.3 0.6-0.6 0.2-1.2 0.5l-3.6-4.3q0.7-0.2 1.4-0.4 0.6-0.1 1.3-0.4 0.7-0.2 1.4-0.5 0.6-0.3 1.2-0.6 0.8-0.4 1.5-0.8 0.7-0.4 1.4-0.8 0.6-0.5 1.3-0.9 0.6-0.5 1.3-1 0.3-0.3 0.6-0.6 0.3-0.3 0.6-0.5 0.3-0.3 0.6-0.6 0.3-0.3 0.5-0.6 0.2-0.2 0.4-0.4 0.1-0.2 0.3-0.4 0.1-0.2 0.3-0.5 0.1-0.2 0.2-0.4 0.1-0.2 0.1-0.3 0.1-0.1 0.1-0.3 0-0.1 0-0.3 0-0.1 0-0.3 0-0.1 0-0.2 0-0.1-0.1-0.2 0-0.1-0.1-0.2 0-0.1-0.1-0.1-0.1-0.1-0.2-0.2-0.1-0.1-0.2-0.2-0.2 0-0.3 0-0.1-0.1-0.3-0.1-0.2 0-0.4 0.1-0.2 0-0.4 0-0.2 0.1-0.4 0.1-0.1 0.1-0.3 0.2-0.3 0.1-0.5 0.2-0.3 0.1-0.5 0.2-0.3 0.1-0.5 0.2-0.3 0.1-0.5 0.3-1.1 0.5-2.3 1.2l-2.5 1.3q-1.2 0.6-2.5 1.2-0.3 0.1-0.6 0.2-0.3 0.1-0.7 0.2-0.3 0.2-0.6 0.3-0.3 0-0.6 0.1-0.3 0.1-0.6 0.2-0.3 0-0.6 0.1-0.3 0-0.6 0.1-0.3 0-0.6 0-0.3 0-0.6 0-0.2-0.1-0.5-0.1-0.3-0.1-0.6-0.2-0.2 0-0.5-0.1-0.3-0.2-0.5-0.3-0.3-0.2-0.5-0.4-0.3-0.1-0.5-0.4-0.2-0.2-0.4-0.4-0.2-0.3-0.4-0.5-0.2-0.3-0.4-0.6-0.1-0.3-0.3-0.7-0.1-0.3-0.2-0.6-0.1-0.3-0.1-0.6-0.1-0.3-0.1-0.6 0-0.3 0-0.6 0-0.3 0.1-0.6 0.1-0.3 0.1-0.6 0.1-0.3 0.2-0.6 0.1-0.3 0.2-0.6 0.2-0.3 0.3-0.6 0.2-0.3 0.3-0.6 0.2-0.3 0.4-0.6 0.2-0.2 0.4-0.5 0.2-0.3 0.4-0.6 0.2-0.2 0.4-0.5 0.3-0.2 0.5-0.5 0.2-0.2 0.5-0.5 0.2-0.2 0.5-0.5 1-1 2-1.7 1-0.9 2.2-1.7 1.2-0.8 2.4-1.5 1.3-0.8 2.5-1.4 1.2-0.6 2.3-1l3.5 4.2"/>
		<path id="Layer" class="s0" d="m70.6 159.7l-6.3-7.5-12.3 10.4 6.3 7.5-4.9 4.1-15-18 4.8-4.1 5.5 6.6 12.3-10.4-5.5-6.5 4.9-4.1 15.1 18-4.9 4.1"/>
		<path id="Layer" class="s0" d="m81.2 150.9l-15.1-18 4.9-4.1 15 18z"/>
		<path id="Layer" class="s0" d="m108.6 127.8l-22.5-2.1 10.4 12.3-4.8 4.1-15.1-18 5.2-4.5 22.6 2.3-10.4-12.4 4.8-4.1 15.1 18-5.2 4.5"/>
		<path id="Layer" class="s0" d="m115.7 90.5q0.6-0.5 1.2-1 0.7-0.5 1.3-0.9 0.7-0.5 1.4-0.9 0.7-0.5 1.4-0.8 0.6-0.4 1.2-0.7 0.6-0.3 1.3-0.6 0.6-0.3 1.3-0.6 0.6-0.2 1.3-0.5l3.7 4.4q-0.3 0.1-0.6 0.1-0.3 0.1-0.6 0.2-0.3 0-0.6 0.1-0.3 0.1-0.6 0.2-0.3 0.1-0.6 0.2-0.4 0.1-0.7 0.3-0.3 0.1-0.6 0.2-0.4 0.2-0.7 0.3-0.3 0.2-0.7 0.3-0.3 0.2-0.7 0.4-0.3 0.2-0.7 0.4-0.3 0.2-0.6 0.4-0.4 0.2-0.8 0.5-0.3 0.2-0.7 0.4-0.3 0.3-0.7 0.6-0.3 0.2-0.6 0.5-0.4 0.3-0.8 0.6-0.4 0.4-0.7 0.7-0.4 0.4-0.7 0.7-0.3 0.4-0.6 0.8-0.3 0.3-0.5 0.6-0.2 0.3-0.4 0.6-0.2 0.3-0.4 0.6-0.2 0.4-0.4 0.7-0.1 0.3-0.2 0.5-0.1 0.3-0.2 0.6-0.1 0.3-0.2 0.6 0 0.2-0.1 0.5 0 0.5 0 1 0 0.4 0.1 0.9 0.1 0.5 0.2 0.9 0.2 0.5 0.4 0.9 0.1 0.2 0.2 0.3 0.1 0.2 0.2 0.4 0.2 0.2 0.3 0.3 0.1 0.2 0.2 0.4 0.2 0.1 0.3 0.2 0.1 0.2 0.3 0.3 0.1 0.1 0.2 0.3 0.2 0.1 0.3 0.2 0.2 0.2 0.4 0.3 0.1 0.1 0.3 0.2 0.2 0.1 0.4 0.2 0.2 0.1 0.4 0.2 0.2 0.1 0.4 0.2 0.3 0.1 0.5 0.1 0.2 0.1 0.5 0.1 0.2 0.1 0.5 0.1 0.3 0 0.5 0 0.3 0 0.6 0 0.3 0 0.6 0 0.3-0.1 0.5-0.2 0.4-0.1 0.8-0.2 0.3-0.1 0.7-0.2 0.3-0.2 0.6-0.3 0.4-0.2 0.7-0.3 0.4-0.3 0.8-0.5 0.4-0.3 0.8-0.6 0.4-0.2 0.8-0.5 0.4-0.3 0.8-0.7 0.8-0.7 1.4-1.3 0.2-0.1 0.3-0.2 0.1-0.2 0.2-0.3 0.2-0.2 0.3-0.3 0.1-0.2 0.2-0.3 0.1-0.1 0.2-0.3 0.1-0.1 0.3-0.2 0.1-0.1 0.1-0.3 0.1-0.1 0.2-0.2l0.8-1.1-1.8-2.2-5.5 4.6-3.3-4 10.3-8.6 7.7 9.2q-0.2 0.3-0.4 0.6-0.2 0.3-0.4 0.6-0.2 0.3-0.4 0.6-0.2 0.3-0.4 0.6-1.1 1.3-2.2 2.5-1.1 1.3-2.3 2.5-1.2 1.1-2.3 2.1-0.4 0.3-0.8 0.7-0.5 0.3-0.9 0.7-0.5 0.3-0.9 0.6-0.5 0.3-1 0.6-0.4 0.3-0.8 0.5-0.5 0.3-0.9 0.5-0.5 0.2-1 0.4-0.4 0.2-0.9 0.4-0.4 0.2-0.9 0.3-0.4 0.2-0.9 0.3-0.5 0.1-0.9 0.2-0.5 0.1-0.9 0.1-0.5 0.1-0.9 0.1-0.5 0-0.9 0-0.4 0-0.9-0.1-0.4 0-0.8-0.1-0.5-0.1-0.9-0.3-0.4-0.1-0.8-0.3-0.4-0.1-0.8-0.3-0.4-0.2-0.8-0.5-0.4-0.2-0.8-0.5-0.4-0.3-0.8-0.7-0.4-0.3-0.7-0.7-0.4-0.3-0.7-0.7-0.3-0.4-0.6-0.8-0.3-0.4-0.6-0.9-0.3-0.4-0.5-0.8-0.2-0.5-0.4-1-0.2-0.4-0.3-0.8-0.1-0.4-0.2-0.9-0.1-0.4-0.1-0.9-0.1-0.4-0.1-0.9 0-0.4 0-0.9 0.1-0.4 0.1-0.8 0.1-0.5 0.2-0.9 0.1-0.5 0.2-0.9 0.2-0.4 0.3-0.9 0.2-0.4 0.4-0.8 0.2-0.5 0.4-0.9 0.2-0.4 0.5-0.8 0.2-0.4 0.5-0.9 0.3-0.4 0.6-0.8 0.3-0.4 0.6-0.8 0.3-0.4 0.7-0.8 0.4-0.4 0.7-0.8 0.4-0.4 0.8-0.7 0.4-0.4 0.8-0.8 0.4-0.3 0.8-0.7"/>
		<path id="Layer" class="s0" d="m145.9 96.6l-15.1-18 4.9-4.1 11.8 14 13.1-11 3.3 3.9-18 15.1"/>
		<path id="Layer" fill-rule="evenodd" class="s0" d="m183.5 49.7q0.5 0.5 0.9 1.1 0.4 0.6 0.7 1.2 0.3 0.6 0.6 1.2 0.2 0.7 0.4 1.3 0.2 0.6 0.3 1.3 0 0.6 0 1.2 0 0.7 0 1.3-0.1 0.6-0.3 1.2-0.1 0.7-0.4 1.3-0.2 0.7-0.5 1.3-0.3 0.7-0.6 1.3-0.4 0.6-0.8 1.1-0.5 0.7-1 1.3-0.5 0.7-1.1 1.3-0.6 0.6-1.2 1.2-0.6 0.5-1.3 1.1-0.6 0.5-1.3 1-0.6 0.5-1.3 1-0.7 0.4-1.5 0.9-0.7 0.4-1.5 0.7-0.6 0.3-1.2 0.6-0.7 0.2-1.4 0.4-0.7 0.2-1.4 0.3-0.6 0.1-1.3 0.2-0.7 0-1.3 0-0.6-0.1-1.3-0.2-0.6-0.1-1.2-0.3-0.6-0.2-1.2-0.4-1.2-0.6-2.3-1.5-1.1-0.8-2-1.9-0.9-1-1.5-2.3-0.7-1.2-1.1-2.5-0.1-0.6-0.2-1.2-0.1-0.7-0.1-1.3 0-0.6 0.1-1.3 0.1-0.6 0.2-1.2 0.2-0.7 0.5-1.3 0.2-0.7 0.5-1.3 0.3-0.6 0.6-1.2 0.4-0.6 0.8-1.2 0.5-0.7 1-1.3 0.6-0.7 1.1-1.3 0.6-0.6 1.2-1.2 0.6-0.6 1.3-1.1 0.6-0.5 1.3-1 0.7-0.5 1.4-1 0.7-0.5 1.4-0.9 0.7-0.4 1.5-0.7 0.6-0.3 1.2-0.6 0.7-0.2 1.4-0.4 0.6-0.2 1.3-0.3 0.7-0.1 1.4-0.2 0.7 0 1.3 0 0.6 0.1 1.2 0.2 0.7 0.1 1.3 0.3 0.6 0.2 1.2 0.5 0.6 0.3 1.2 0.6 0.5 0.4 1.1 0.8 0.5 0.4 1 0.9 0.5 0.5 0.9 1m-4.9 4.2q-0.2-0.3-0.4-0.5-0.3-0.3-0.5-0.5-0.3-0.2-0.5-0.4-0.3-0.2-0.6-0.4-0.3-0.2-0.6-0.3-0.3-0.2-0.7-0.3-0.3-0.1-0.6-0.1-0.4-0.1-0.7-0.1-0.5 0-0.9 0-0.4 0-0.8 0.1-0.4 0.1-0.8 0.2-0.5 0.1-0.9 0.3-0.5 0.2-1 0.5-0.6 0.2-1.1 0.5-0.5 0.4-0.9 0.7-0.5 0.4-1 0.8-0.3 0.2-0.6 0.5-0.3 0.3-0.6 0.6-0.3 0.3-0.6 0.6-0.3 0.3-0.5 0.7-0.2 0.2-0.4 0.5-0.2 0.3-0.4 0.5-0.2 0.3-0.3 0.6-0.2 0.3-0.3 0.6-0.1 0.3-0.2 0.5-0.1 0.3-0.2 0.5-0.1 0.3-0.1 0.6-0.1 0.2-0.1 0.5 0 0.2 0 0.5 0 0.2 0 0.5 0 0.2 0 0.4 0.1 0.3 0.1 0.5 0.1 0.2 0.1 0.4 0.1 0.3 0.2 0.5 0 0.2 0.1 0.4 0.1 0.2 0.2 0.4 0.1 0.2 0.3 0.4 0.1 0.2 0.2 0.3 0.1 0.2 0.3 0.4 0.1 0.2 0.2 0.3 0.2 0.2 0.3 0.4 0.2 0.1 0.3 0.3 0.2 0.1 0.4 0.3 0.1 0.1 0.3 0.3 0.2 0.1 0.4 0.2 0.1 0.2 0.3 0.3 0.2 0.1 0.4 0.2 0.2 0.1 0.5 0.2 0.2 0.1 0.4 0.1 0.2 0.1 0.5 0.2 0.2 0 0.4 0.1 0.3 0 0.5 0 0.3 0 0.6 0 0.2 0 0.5 0 0.3 0 0.5-0.1 0.3 0 0.6-0.1 0.3-0.1 0.6-0.2 0.3-0.1 0.6-0.2 0.3-0.2 0.6-0.3 0.3-0.1 0.6-0.3 0.4-0.2 0.7-0.4 0.4-0.3 0.7-0.5 0.4-0.2 0.7-0.5 0.4-0.3 0.7-0.5 0.4-0.4 0.9-0.8 0.4-0.4 0.8-0.9 0.4-0.4 0.8-0.9 0.3-0.5 0.7-1 0.2-0.3 0.4-0.7 0.2-0.4 0.3-0.8 0.1-0.4 0.2-0.8 0.1-0.4 0.2-0.8 0-0.4 0-0.7 0-0.4 0-0.7-0.1-0.4-0.1-0.7-0.1-0.3-0.3-0.7-0.1-0.3-0.2-0.6-0.2-0.3-0.4-0.6-0.1-0.3-0.3-0.5-0.2-0.3-0.4-0.6z"/>
		<path id="Layer" class="s0" d="m191.7 26.8q0.6-0.6 1.2-1.1 0.7-0.4 1.3-0.9 0.7-0.5 1.4-0.9 0.7-0.4 1.4-0.8 0.6-0.3 1.2-0.7 0.7-0.3 1.3-0.6 0.7-0.3 1.3-0.5 0.7-0.3 1.3-0.5l3.7 4.4q-0.3 0-0.6 0.1-0.3 0-0.6 0.1-0.3 0.1-0.5 0.2-0.3 0.1-0.6 0.1-0.4 0.2-0.7 0.3-0.3 0.1-0.7 0.2-0.3 0.1-0.6 0.3-0.3 0.1-0.6 0.2-0.4 0.2-0.7 0.4-0.4 0.2-0.7 0.4-0.4 0.1-0.7 0.3-0.4 0.2-0.7 0.4-0.4 0.3-0.7 0.5-0.4 0.2-0.7 0.5-0.4 0.2-0.7 0.5-0.4 0.3-0.7 0.5-0.4 0.4-0.8 0.7-0.3 0.3-0.7 0.7-0.3 0.3-0.7 0.7-0.3 0.3-0.6 0.7-0.2 0.3-0.5 0.6-0.2 0.3-0.4 0.6-0.2 0.3-0.4 0.7-0.2 0.3-0.4 0.6-0.1 0.3-0.2 0.6-0.1 0.2-0.2 0.5-0.1 0.3-0.1 0.6-0.1 0.3-0.1 0.6-0.1 0.2-0.1 0.5 0 0.2 0 0.5 0 0.2 0.1 0.5 0 0.2 0 0.5 0.1 0.2 0.1 0.4 0.1 0.2 0.2 0.4 0 0.2 0.1 0.4 0.1 0.3 0.2 0.5 0.1 0.1 0.2 0.3 0.2 0.2 0.3 0.4 0.1 0.1 0.2 0.3 0.1 0.2 0.3 0.3 0.1 0.2 0.2 0.3 0.2 0.2 0.3 0.3 0.1 0.1 0.3 0.3 0.1 0.1 0.2 0.2 0.2 0.1 0.4 0.3 0.2 0.1 0.4 0.2 0.1 0.1 0.3 0.2 0.2 0.1 0.4 0.2 0.3 0.1 0.5 0.2 0.2 0.1 0.4 0.1 0.3 0.1 0.5 0.1 0.3 0.1 0.5 0.1 0.3 0 0.6 0 0.3 0 0.5 0 0.3 0 0.6-0.1 0.3 0 0.6-0.1 0.3-0.1 0.7-0.2 0.3-0.1 0.7-0.2 0.3-0.2 0.7-0.3 0.3-0.2 0.6-0.4 0.4-0.2 0.9-0.5 0.4-0.2 0.8-0.5 0.4-0.3 0.7-0.6 0.4-0.3 0.8-0.6 0.9-0.7 1.5-1.3 0.6-0.6 1-1.1 0.5-0.5 0.8-1.1l0.7-1.1-1.8-2.1-5.4 4.5-3.3-3.9 10.3-8.6 7.7 9.1q-0.2 0.4-0.4 0.7-0.2 0.3-0.4 0.6-0.2 0.3-0.4 0.6-0.3 0.3-0.5 0.6-1 1.2-2.1 2.5-1.1 1.3-2.3 2.4-1.2 1.2-2.3 2.2-0.4 0.3-0.9 0.7-0.4 0.3-0.9 0.6-0.4 0.4-0.9 0.7-0.4 0.3-0.9 0.6-0.4 0.3-0.9 0.5-0.4 0.2-0.9 0.5-0.4 0.2-0.9 0.4-0.5 0.2-0.9 0.4-0.5 0.2-0.9 0.3-0.5 0.2-0.9 0.3-0.5 0.1-0.9 0.2-0.5 0-1 0.1-0.4 0.1-0.8 0.1-0.5 0-0.9 0-0.4 0-0.9-0.1-0.4-0.1-0.9-0.1-0.4-0.1-0.8-0.3-0.4-0.1-0.8-0.3-0.5-0.1-0.9-0.3-0.4-0.2-0.7-0.5-0.5-0.2-0.9-0.5-0.4-0.4-0.7-0.7-0.4-0.3-0.8-0.7-0.3-0.4-0.6-0.7-0.4-0.4-0.7-0.8-0.3-0.4-0.5-0.9-0.3-0.4-0.5-0.9-0.2-0.4-0.4-0.9-0.2-0.4-0.3-0.8-0.2-0.5-0.3-0.9-0.1-0.4-0.1-0.9-0.1-0.4-0.1-0.9 0-0.4 0-0.9 0.1-0.4 0.1-0.9 0.1-0.4 0.2-0.9 0.1-0.4 0.2-0.8 0.2-0.5 0.3-0.9 0.2-0.4 0.4-0.9 0.2-0.4 0.4-0.8 0.2-0.4 0.5-0.8 0.2-0.5 0.5-0.9 0.3-0.4 0.6-0.8 0.3-0.4 0.6-0.8 0.4-0.4 0.7-0.8 0.4-0.4 0.7-0.8 0.4-0.4 0.8-0.8 0.4-0.4 0.8-0.7 0.4-0.4 0.8-0.7"/>
		<path id="Layer" fill-rule="evenodd" class="s0" d="m237.6 4.3q0.5 0.5 0.9 1.1 0.4 0.6 0.7 1.2 0.3 0.6 0.6 1.2 0.2 0.7 0.4 1.3 0.2 0.6 0.2 1.3 0.1 0.6 0.1 1.2 0 0.7-0.1 1.3 0 0.6-0.2 1.2-0.1 0.7-0.4 1.4-0.2 0.6-0.5 1.2-0.3 0.7-0.7 1.3-0.3 0.6-0.7 1.1-0.5 0.7-1 1.4-0.6 0.6-1.1 1.2-0.6 0.6-1.2 1.2-0.6 0.6-1.3 1.1-0.6 0.5-1.3 1-0.7 0.5-1.4 1-0.7 0.5-1.4 0.9-0.7 0.4-1.5 0.8-0.6 0.3-1.3 0.5-0.6 0.2-1.3 0.4-0.7 0.2-1.4 0.3-0.7 0.1-1.3 0.2-0.7 0-1.3 0-0.7 0-1.3-0.2-0.6-0.1-1.2-0.3-0.6-0.1-1.2-0.4-0.6-0.3-1.2-0.7-0.6-0.3-1.1-0.7-0.6-0.5-1.1-0.9-0.5-0.5-0.9-1.1-0.5-0.5-0.8-1.1-0.4-0.5-0.8-1.1-0.3-0.6-0.5-1.3-0.3-0.6-0.5-1.3-0.1-0.6-0.2-1.2-0.1-0.6-0.1-1.3 0-0.6 0.1-1.2 0.1-0.7 0.2-1.3 0.2-0.7 0.4-1.3 0.3-0.7 0.6-1.3 0.3-0.6 0.6-1.2 0.4-0.6 0.8-1.2 1-1.3 2.1-2.6 1.2-1.2 2.5-2.3 1.2-1 2.6-2 1.4-0.9 3-1.6 0.6-0.3 1.2-0.6 0.7-0.2 1.4-0.4 0.6-0.2 1.3-0.3 0.7-0.1 1.4-0.1 0.6-0.1 1.3 0 0.6 0 1.2 0.1 0.6 0.1 1.3 0.3 0.6 0.2 1.1 0.5 0.7 0.3 1.2 0.6 0.6 0.4 1.2 0.8 0.5 0.4 1 0.9 0.5 0.5 0.9 1.1m-4.9 4.1q-0.2-0.3-0.4-0.5-0.3-0.3-0.5-0.5-0.3-0.2-0.5-0.4-0.3-0.2-0.6-0.3-0.3-0.2-0.6-0.4-0.3-0.1-0.7-0.2-0.3-0.2-0.7-0.2-0.3-0.1-0.6-0.1-0.5 0-0.9 0-0.4 0-0.8 0.1-0.5 0.1-0.9 0.2-0.4 0.1-0.8 0.3-0.5 0.2-1 0.5-0.6 0.2-1.1 0.6-0.5 0.3-0.9 0.6-0.5 0.4-1 0.8-0.3 0.3-0.6 0.5-0.3 0.3-0.6 0.6-0.3 0.3-0.6 0.6-0.3 0.4-0.5 0.7-0.3 0.2-0.4 0.5-0.2 0.3-0.4 0.6-0.2 0.2-0.3 0.5-0.2 0.3-0.3 0.6-0.2 0.3-0.2 0.5-0.1 0.3-0.2 0.6-0.1 0.2-0.1 0.5-0.1 0.3-0.1 0.5 0 0.3 0 0.5 0 0.2 0 0.5 0 0.2 0 0.5 0 0.2 0.1 0.4 0 0.3 0.1 0.5 0.1 0.2 0.1 0.4 0.1 0.2 0.2 0.4 0.1 0.2 0.2 0.4 0.1 0.2 0.2 0.4 0.2 0.2 0.3 0.4 0.1 0.1 0.2 0.3 0.2 0.2 0.3 0.4 0.2 0.1 0.3 0.3 0.2 0.2 0.3 0.3 0.2 0.2 0.3 0.3 0.2 0.2 0.4 0.3 0.2 0.1 0.3 0.3 0.2 0.1 0.4 0.2 0.2 0.1 0.4 0.2 0.2 0.1 0.5 0.2 0.2 0.1 0.4 0.2 0.2 0 0.5 0.1 0.2 0 0.4 0.1 0.3 0 0.5 0 0.3 0 0.5 0 0.3 0 0.6 0 0.2 0 0.5-0.1 0.3 0 0.6-0.1 0.3-0.1 0.6-0.2 0.3-0.1 0.6-0.2 0.3-0.1 0.6-0.3 0.3-0.1 0.6-0.3 0.4-0.2 0.7-0.4 0.4-0.2 0.7-0.5 0.4-0.2 0.7-0.5 0.3-0.2 0.7-0.5 0.4-0.4 0.9-0.8 0.4-0.4 0.8-0.9 0.4-0.4 0.8-0.9 0.3-0.4 0.7-0.9 0.2-0.4 0.4-0.8 0.1-0.4 0.3-0.8 0.1-0.4 0.2-0.8 0.1-0.4 0.2-0.8 0-0.4 0-0.7 0-0.4 0-0.7-0.1-0.3-0.2-0.7 0-0.3-0.2-0.6-0.1-0.4-0.3-0.7-0.1-0.3-0.3-0.6-0.1-0.2-0.3-0.5-0.2-0.3-0.4-0.5z"/>
	</g>
</svg>