<svg xmlns:mydata="http://www.w3.org/2000/svg" mydata:contrastcolor="393b3c" mydata:template="Contrast" mydata:presentation="2.5" mydata:layouttype="undefined" mydata:specialfontid="undefined" mydata:id1="371" mydata:id2="372" mydata:companyname="hmedmovie" mydata:companytagline="find movies" version="1.1" xmlns="http://www.w3.org/2000/svg" xmlns:xlink="http://www.w3.org/1999/xlink" viewBox="88.65219995045985 115 372.69560009908037 240" class="watermark-logo"><defs><linearGradient x1="88.6522" y1="235" x2="461.3478" y2="235" gradientUnits="userSpaceOnUse" id="color-17046880164"><stop offset="0" stop-color="#bdc3c7" data-darkreader-inline-stopcolor="" style="--darkreader-inline-stopcolor:#3a3f42;"></stop><stop offset="1" stop-color="#767a7c" data-darkreader-inline-stopcolor="" style="--darkreader-inline-stopcolor:#5b6366;"></stop></linearGradient></defs><g fill="url(#color-17046880164)" fill-rule="none" stroke="none" stroke-width="1" stroke-linecap="butt" stroke-linejoin="miter" stroke-miterlimit="10" stroke-dasharray="" stroke-dashoffset="0" font-family="none" font-weight="none" font-size="none" text-anchor="none" style="mix-blend-mode: normal; --darkreader-inline-stroke:none;" data-darkreader-inline-stroke=""><g data-paper-data="{&quot;isGlobalGroup&quot;:true,&quot;bounds&quot;:{&quot;x&quot;:88.65219995045985,&quot;y&quot;:115,&quot;width&quot;:372.69560009908037,&quot;height&quot;:240}}"><g data-paper-data="{&quot;isSecondaryText&quot;:true}" fill-rule="nonzero"><path d="M164.94361,344.00215v-1.20315h-7.96455v11.86209h1.49123v-5.59213h5.79548v-1.20315h-5.79548v-3.86365z" data-paper-data="{&quot;glyphName&quot;:&quot;F&quot;,&quot;glyphIndex&quot;:0,&quot;firstGlyphOfWord&quot;:true,&quot;word&quot;:1}" style="fill: rgb(255, 255, 255); --darkreader-inline-fill:#e8e6e3;" data-darkreader-inline-fill=""></path><path d="M177.71215,342.79899v11.86209h1.49123v-11.86209z" data-paper-data="{&quot;glyphName&quot;:&quot;I&quot;,&quot;glyphIndex&quot;:1,&quot;word&quot;:1}" style="fill: rgb(255, 255, 255); --darkreader-inline-fill:#e8e6e3;" data-darkreader-inline-fill=""></path><path d="M202.29798,342.79899v9.84553l-6.16829,-9.84553h-1.77931v11.86209h1.42345v-9.84553l6.15134,9.84553h1.79626v-11.86209z" data-paper-data="{&quot;glyphName&quot;:&quot;N&quot;,&quot;glyphIndex&quot;:2,&quot;word&quot;:1}" style="fill: rgb(255, 255, 255); --darkreader-inline-fill:#e8e6e3;" data-darkreader-inline-fill=""></path><path d="M231.19272,348.73004c0,-4.15173 -1.64375,-5.93104 -5.47351,-5.93104h-4.067v11.86209h4.067c3.82976,0 5.47351,-1.77931 5.47351,-5.93104zM225.65143,344.00215c2.81301,0 3.98227,1.4065 3.98227,4.72789c0,3.33833 -1.16926,4.72789 -3.98227,4.72789h-2.50798v-9.45578z" data-paper-data="{&quot;glyphName&quot;:&quot;D&quot;,&quot;glyphIndex&quot;:3,&quot;lastGlyphOfWord&quot;:true,&quot;word&quot;:1}" style="fill: rgb(255, 255, 255); --darkreader-inline-fill:#e8e6e3;" data-darkreader-inline-fill=""></path><path d="M263.11423,354.66108h1.42345v-9.82859l4.05006,9.5744l0.06778,0.25419h0.98286l0.11862,-0.35586l4.01616,-9.47273v9.82859h1.42345v-11.86209h-0.79645h-0.627h-0.55921l-4.03311,9.64218l-4.03311,-9.64218h-0.61005h-0.64394h-0.77951z" data-paper-data="{&quot;glyphName&quot;:&quot;M&quot;,&quot;glyphIndex&quot;:4,&quot;firstGlyphOfWord&quot;:true,&quot;word&quot;:2}" style="fill: rgb(255, 255, 255); --darkreader-inline-fill:#e8e6e3;" data-darkreader-inline-fill=""></path><path d="M299.33115,342.46008c-3.94838,0 -5.64297,1.88099 -5.64297,6.26996c0,4.38897 1.69458,6.26996 5.64297,6.26996c3.94838,0 5.62602,-1.88099 5.62602,-6.26996c0,-4.38897 -1.67764,-6.26996 -5.62602,-6.26996zM299.33115,343.74796c2.88079,0 4.08395,1.45734 4.08395,4.98208c0,3.52473 -1.20315,4.98208 -4.08395,4.98208c-2.88079,0 -4.08395,-1.45734 -4.08395,-4.98208c0,-3.52473 1.20315,-4.98208 4.08395,-4.98208z" data-paper-data="{&quot;glyphName&quot;:&quot;O&quot;,&quot;glyphIndex&quot;:5,&quot;word&quot;:2}" style="fill: rgb(255, 255, 255); --darkreader-inline-fill:#e8e6e3;" data-darkreader-inline-fill=""></path><path d="M322.7134,342.79899h-1.50818l4.11784,11.86209h2.10128l4.10089,-11.86209h-1.49123l-3.6603,10.81145z" data-paper-data="{&quot;glyphName&quot;:&quot;V&quot;,&quot;glyphIndex&quot;:6,&quot;word&quot;:2}" style="fill: rgb(255, 255, 255); --darkreader-inline-fill:#e8e6e3;" data-darkreader-inline-fill=""></path><path d="M345.36641,342.79899v11.86209h1.49123v-11.86209z" data-paper-data="{&quot;glyphName&quot;:&quot;I&quot;,&quot;glyphIndex&quot;:7,&quot;word&quot;:2}" style="fill: rgb(255, 255, 255); --darkreader-inline-fill:#e8e6e3;" data-darkreader-inline-fill=""></path><path d="M369.48276,344.00215v-1.20315h-7.96455v11.86209h7.96455v-1.20315h-6.47331v-4.38897h5.79548v-1.20315h-5.79548v-3.86365z" data-paper-data="{&quot;glyphName&quot;:&quot;E&quot;,&quot;glyphIndex&quot;:8,&quot;word&quot;:2}" style="fill: rgb(255, 255, 255); --darkreader-inline-fill:#e8e6e3;" data-darkreader-inline-fill=""></path><path d="M385.71728,345.84925c0,-1.60985 0.8134,-2.2538 2.86385,-2.2538c2.06739,0 2.91468,0.76256 2.91468,2.59271h1.35567c0,-2.60966 -1.27094,-3.72809 -4.27035,-3.72809c-2.99941,0 -4.2873,1.08453 -4.2873,3.60946c0,4.23646 7.30366,2.20296 7.30366,5.54129c0,1.59291 -0.84729,2.2538 -3.01636,2.2538c-2.20296,0 -3.08414,-0.74562 -3.08414,-2.59271h-1.37261c0,2.60966 1.33872,3.72809 4.45676,3.72809c3.11803,0 4.43981,-1.08453 4.43981,-3.60946c0,-4.4737 -7.30366,-2.50798 -7.30366,-5.54129z" data-paper-data="{&quot;glyphName&quot;:&quot;S&quot;,&quot;glyphIndex&quot;:9,&quot;lastGlyphOfWord&quot;:true,&quot;word&quot;:2}" style="fill: rgb(255, 255, 255); --darkreader-inline-fill:#e8e6e3;" data-darkreader-inline-fill=""></path></g><g data-paper-data="{&quot;isPrimaryText&quot;:true}" fill-rule="nonzero"><path d="M112.62949,291.47311v14.25834h-10.9411v-14.25834h-13.0362v40.73812h13.0362v-17.22641h10.9411v17.22641h13.0362v-40.73812z" data-paper-data="{&quot;glyphName&quot;:&quot;H&quot;,&quot;glyphIndex&quot;:0,&quot;firstGlyphOfWord&quot;:true,&quot;word&quot;:1}" style="fill: rgb(255, 255, 255); --darkreader-inline-fill:#e8e6e3;" data-darkreader-inline-fill=""></path><path d="M133.17315,332.21123h12.33783v-25.66502l6.92548,23.7445l0.64017,1.92051h7.79844l0.98935,-2.90987l6.5763,-22.75515v25.66502h12.33783v-40.73812h-7.15827h-5.17956h-4.53939l-6.5763,23.97729l-6.5763,-23.97729h-5.23776h-5.17956h-7.15827z" data-paper-data="{&quot;glyphName&quot;:&quot;M&quot;,&quot;glyphIndex&quot;:1,&quot;word&quot;:1}" style="fill: rgb(255, 255, 255); --darkreader-inline-fill:#e8e6e3;" data-darkreader-inline-fill=""></path><path d="M219.18878,300.08632v-8.6132h-30.84458v40.73812h30.84458v-8.6132h-17.80838v-7.97303h15.48049v-8.6714h-15.48049v-6.86728z" data-paper-data="{&quot;glyphName&quot;:&quot;E&quot;,&quot;glyphIndex&quot;:2,&quot;word&quot;:1}" style="fill: rgb(255, 255, 255); --darkreader-inline-fill:#e8e6e3;" data-darkreader-inline-fill=""></path><path d="M262.77856,311.84217c0,-14.25834 -6.4017,-20.36906 -21.41661,-20.36906h-17.45919v40.73812h17.45919c15.01491,0 21.41661,-6.11072 21.41661,-20.36906zM240.72178,300.08632c5.87793,0 8.38041,3.55004 8.38041,11.75586c0,8.20582 -2.56068,11.75586 -8.38041,11.75586h-3.78283v-23.51171z" data-paper-data="{&quot;glyphName&quot;:&quot;D&quot;,&quot;glyphIndex&quot;:3,&quot;word&quot;:1}" style="fill: rgb(255, 255, 255); --darkreader-inline-fill:#e8e6e3;" data-darkreader-inline-fill=""></path><path d="M267.89993,332.21123h12.33783v-25.66502l6.92548,23.7445l0.64017,1.92051h7.79844l0.98935,-2.90987l6.5763,-22.75515v25.66502h12.33783v-40.73812h-7.15827h-5.17956h-4.53939l-6.5763,23.97729l-6.5763,-23.97729h-5.23776h-5.17956h-7.15827z" data-paper-data="{&quot;glyphName&quot;:&quot;M&quot;,&quot;glyphIndex&quot;:4,&quot;word&quot;:1}" style="fill: rgb(255, 255, 255); --darkreader-inline-fill:#e8e6e3;" data-darkreader-inline-fill=""></path><path d="M342.62528,290.30917c-15.36409,0 -21.99858,6.4599 -21.99858,21.53301c0,15.0731 6.63449,21.53301 21.99858,21.53301c15.42229,0 21.99858,-6.4599 21.99858,-21.53301c0,-15.0731 -6.5763,-21.53301 -21.99858,-21.53301zM342.62528,299.56254c5.81973,0 8.32222,3.72463 8.32222,12.27963c0,8.55501 -2.50248,12.27963 -8.32222,12.27963c-5.76153,0 -8.26402,-3.72463 -8.26402,-12.27963c0,-8.55501 2.50248,-12.27963 8.26402,-12.27963z" data-paper-data="{&quot;glyphName&quot;:&quot;O&quot;,&quot;glyphIndex&quot;:5,&quot;word&quot;:1}" style="fill: rgb(255, 255, 255); --darkreader-inline-fill:#e8e6e3;" data-darkreader-inline-fill=""></path><path d="M378.47482,291.47311h-12.978l11.11569,40.73812h18.91413l11.11569,-40.73812h-13.0362l-7.56565,31.77573z" data-paper-data="{&quot;glyphName&quot;:&quot;V&quot;,&quot;glyphIndex&quot;:6,&quot;word&quot;:1}" style="fill: rgb(255, 255, 255); --darkreader-inline-fill:#e8e6e3;" data-darkreader-inline-fill=""></path><path d="M409.95957,291.47311v40.73812h13.0362v-40.73812z" data-paper-data="{&quot;glyphName&quot;:&quot;I&quot;,&quot;glyphIndex&quot;:7,&quot;word&quot;:1}" style="fill: rgb(255, 255, 255); --darkreader-inline-fill:#e8e6e3;" data-darkreader-inline-fill=""></path><path d="M461.3478,300.08632v-8.6132h-30.84458v40.73812h30.84458v-8.6132h-17.80838v-7.97303h15.48049v-8.6714h-15.48049v-6.86728z" data-paper-data="{&quot;glyphName&quot;:&quot;E&quot;,&quot;glyphIndex&quot;:8,&quot;lastGlyphOfWord&quot;:true,&quot;word&quot;:1}" style="fill: rgb(255, 255, 255); --darkreader-inline-fill:#e8e6e3;" data-darkreader-inline-fill=""></path></g><g data-paper-data="{&quot;isIcon&quot;:&quot;true&quot;,&quot;iconType&quot;:&quot;icon&quot;,&quot;rawIconId&quot;:&quot;984468&quot;,&quot;selectedEffects&quot;:{&quot;container&quot;:&quot;&quot;,&quot;transformation&quot;:&quot;&quot;,&quot;pattern&quot;:&quot;&quot;},&quot;isDetailed&quot;:false,&quot;fillRule&quot;:&quot;evenodd&quot;,&quot;bounds&quot;:{&quot;x&quot;:201.58728349238302,&quot;y&quot;:115,&quot;width&quot;:146.82543301523398,&quot;height&quot;:146.82443301909558},&quot;iconStyle&quot;:&quot;standalone&quot;,&quot;suitableAsStandaloneIcon&quot;:true}" fill-rule="evenodd"><g data-paper-data="{&quot;isPathIcon&quot;:true}"><path d="M299.6039,163.82881c5.28598,-3.97898 11.29796,-5.98398 18.03693,-6.01698c0.054,-0.005 0.109,-0.007 0.164,-0.007c8.43997,0 15.65127,2.99199 21.63392,8.97597c5.98264,5.98398 8.97397,13.19562 8.97397,21.63492c0,8.43863 -2.99132,15.64894 -8.97397,21.63092c-5.98198,5.98198 -13.19195,8.97263 -21.62992,8.97197c-6.83297,0 -12.91095,-2.00199 -18.23193,-6.00598c3.99298,5.30398 6.00098,11.33396 6.02298,18.08893c0.003,0.038 0.004,0.077 0.004,0.116c0,8.43797 -2.99099,15.64894 -8.97297,21.63192c-5.98198,5.98398 -13.19295,8.97497 -21.63292,8.97497c-8.43897,0 -15.65094,-2.99099 -21.63392,-8.97497c-5.98264,-5.98198 -8.9743,-13.19228 -8.97497,-21.63092c0,-6.81997 1.99699,-12.89095 5.99298,-18.21293c-5.29798,3.98398 -11.32262,5.98764 -18.07393,6.01098c-0.039,0.002 -0.078,0.003 -0.117,0.003c-8.43863,0 -15.64861,-2.99132 -21.62992,-8.97397c-5.98264,-5.98331 -8.97397,-13.19562 -8.97397,-21.63692c0,-8.43597 2.99132,-15.64527 8.97397,-21.62792c5.98198,-5.98398 13.19295,-8.97597 21.62992,-8.97597c6.82297,0 12.89395,1.99799 18.21393,5.99398c-4.00498,-5.32798 -6.00898,-11.39296 -6.01098,-18.19293c0,-8.43663 2.99099,-15.64661 8.97297,-21.62992c5.98264,-5.98398 13.19295,-8.97597 21.63092,-8.97597c8.43997,0 15.65094,2.99199 21.63392,8.97597c5.98064,5.98264 8.9703,13.19195 8.96897,21.62792c0,6.83397 -1.99899,12.90895 -5.99698,18.22493zM295.11292,164.08681c-0.016,0.11 -0.022,0.222 -0.018,0.334c0.004,0.111 0.019,0.222 0.044,0.331c0.024,0.109 0.059,0.215 0.104,0.317c0.045,0.103 0.099,0.2 0.162,0.293c0.063,0.092 0.134,0.178 0.213,0.257l2.19499,2.19499c0.079,0.08 0.165,0.151 0.258,0.214c0.092,0.063 0.189,0.117 0.292,0.161c0.103,0.045 0.208,0.08 0.317,0.105c0.109,0.025 0.22,0.039 0.332,0.044c0.111,0.004 0.223,-0.002 0.333,-0.019c0.111,-0.017 0.219,-0.043 0.325,-0.08c0.105,-0.037 0.206,-0.084 0.303,-0.139c0.097,-0.056 0.188,-0.121 0.273,-0.193c5.05498,-4.34298 10.90796,-6.51397 17.55893,-6.51397c0.052,0 0.104,-0.002 0.156,-0.007c7.38297,0.037 13.69895,2.67899 18.94493,7.92697c5.28398,5.28465 7.92597,11.65229 7.92597,19.10293c0,7.44997 -2.64199,13.81595 -7.92497,19.09893c-5.28298,5.28198 -11.64896,7.92297 -19.09793,7.92297c-6.68197,0 -12.54295,-2.16699 -17.58393,-6.49897c-0.085,-0.073 -0.176,-0.137 -0.273,-0.193c-0.097,-0.056 -0.198,-0.103 -0.304,-0.14c-0.105,-0.036 -0.214,-0.063 -0.324,-0.08c-0.111,-0.016 -0.222,-0.023 -0.334,-0.018c-0.112,0.004 -0.222,0.019 -0.331,0.043c-0.11,0.025 -0.215,0.06 -0.318,0.105c-0.102,0.045 -0.2,0.099 -0.292,0.162c-0.093,0.063 -0.179,0.134 -0.258,0.213l-2.19499,2.19699c-0.079,0.079 -0.15,0.165 -0.213,0.257c-0.063,0.093 -0.117,0.19 -0.162,0.293c-0.044,0.102 -0.079,0.208 -0.104,0.317c-0.025,0.109 -0.039,0.219 -0.044,0.331c-0.004,0.112 0.002,0.223 0.019,0.334c0.017,0.11 0.043,0.218 0.08,0.324c0.03667,0.10533 0.083,0.20667 0.139,0.304c0.056,0.097 0.12,0.187 0.193,0.272c4.34332,5.06065 6.51497,10.91329 6.51497,17.55793c0,0.037 0.002,0.073 0.004,0.11c-0.026,7.40197 -2.66699,13.73195 -7.92397,18.98993c-5.28298,5.28398 -11.64996,7.92597 -19.10093,7.92597c-7.44997,0 -13.81795,-2.64199 -19.10193,-7.92597c-5.28298,-5.28298 -7.92497,-11.64996 -7.92597,-19.09793c0,-6.67597 2.16599,-12.53695 6.49697,-17.58293c0.073,-0.085 0.137,-0.176 0.193,-0.273c0.056,-0.097 0.102,-0.198 0.139,-0.303c0.037,-0.106 0.064,-0.214 0.08,-0.324c0.017,-0.111 0.023,-0.222 0.019,-0.334c-0.004,-0.111 -0.019,-0.222 -0.044,-0.331c-0.025,-0.109 -0.059,-0.214 -0.104,-0.317c-0.045,-0.102 -0.098,-0.2 -0.161,-0.292c-0.06333,-0.09267 -0.13433,-0.17833 -0.213,-0.257l-2.18999,-2.19399c-0.079,-0.079 -0.165,-0.15 -0.257,-0.213c-0.093,-0.064 -0.19,-0.118 -0.293,-0.162c-0.102,-0.045 -0.208,-0.08 -0.317,-0.105c-0.109,-0.025 -0.22,-0.04 -0.332,-0.044c-0.112,-0.004 -0.223,0.002 -0.333,0.018c-0.111,0.017 -0.219,0.044 -0.325,0.081c-0.106,0.03667 -0.20733,0.083 -0.304,0.139c-0.097,0.056 -0.188,0.12 -0.273,0.193c-5.05731,4.34465 -10.91096,6.51697 -17.56093,6.51697c-0.036,0 -0.073,0.001 -0.11,0.003c-7.40197,-0.026 -13.73128,-2.66766 -18.98793,-7.92497c-5.28331,-5.28398 -7.92497,-11.65229 -7.92497,-19.10493c0,-7.4473 2.64166,-13.81261 7.92497,-19.09593c5.28398,-5.28498 11.64996,-7.92697 19.09793,-7.92697c6.67797,0 12.53895,2.16699 17.58493,6.49897c0.085,0.073 0.176,0.137 0.272,0.193c0.097,0.056 0.199,0.103 0.305,0.139c0.105,0.037 0.213,0.064 0.324,0.081c0.111,0.016 0.222,0.022 0.334,0.018c0.112,-0.004 0.222,-0.019 0.331,-0.044c0.109,-0.025 0.215,-0.06 0.318,-0.105c0.102,-0.045 0.2,-0.099 0.292,-0.162c0.092,-0.063 0.178,-0.134 0.257,-0.213l2.18999,-2.19399c0.079,-0.079 0.15,-0.164 0.213,-0.257c0.063,-0.092 0.117,-0.19 0.161,-0.292c0.045,-0.103 0.08,-0.208 0.105,-0.317c0.025,-0.109 0.039,-0.22 0.043,-0.331c0.004,-0.112 -0.002,-0.223 -0.018,-0.334c-0.017,-0.11 -0.044,-0.218 -0.081,-0.324c-0.036,-0.105 -0.083,-0.207 -0.139,-0.303c-0.055,-0.097 -0.12,-0.188 -0.193,-0.273c-4.34098,-5.05698 -6.51297,-10.90996 -6.51497,-17.56093c0,-7.44797 2.64199,-13.81395 7.92497,-19.09793c5.28298,-5.28498 11.64896,-7.92697 19.09793,-7.92697c7.45097,0 13.81795,2.64199 19.10093,7.92697c5.28198,5.28298 7.92197,11.64796 7.91997,19.09593c0,6.68531 -2.16432,12.54595 -6.49297,17.58193c-0.073,0.085 -0.137,0.176 -0.193,0.272c-0.056,0.097 -0.102,0.199 -0.139,0.304c-0.037,0.106 -0.064,0.214 -0.081,0.325z" style="fill: rgb(255, 255, 255); --darkreader-inline-fill:#e8e6e3;" data-darkreader-inline-fill=""></path><path d="M280.00298,150.60686c1.37999,-1.37599 2.06999,-3.04299 2.06999,-5.00098c0,-4.71598 -2.35899,-7.07497 -7.07697,-7.07497c-4.71098,0 -7.06897,2.35799 -7.07397,7.07197c0,1.95399 0.691,3.62099 2.07499,5.00298l29.00289,29.01089l5.00498,-5.00398c3.78699,-3.78299 8.34797,-5.68898 13.68095,-5.71898c0.04,-0.002 0.079,-0.004 0.119,-0.004c5.38998,0 9.99196,1.90699 13.80395,5.72098c3.81099,3.81299 5.71698,8.41397 5.71698,13.80495c0,5.39098 -1.90699,9.99196 -5.71898,13.80395c-3.81199,3.81132 -8.41263,5.71698 -13.80195,5.71698c-5.39098,0 -9.99196,-1.90599 -13.80395,-5.71698c-0.08267,-0.08333 -0.15667,-0.17367 -0.222,-0.271c-0.066,-0.098 -0.121,-0.201 -0.166,-0.31c-0.045,-0.109 -0.079,-0.22 -0.102,-0.336c-0.023,-0.115 -0.034,-0.231 -0.034,-0.349c0,-0.118 0.011,-0.234 0.034,-0.349c0.023,-0.116 0.057,-0.227 0.102,-0.336c0.045,-0.109 0.1,-0.212 0.166,-0.31c0.065,-0.097 0.139,-0.188 0.222,-0.271l6.26698,-6.27098c0.083,-0.083 0.174,-0.157 0.271,-0.222c0.098,-0.066 0.201,-0.121 0.31,-0.166c0.108,-0.045 0.22,-0.079 0.336,-0.102c0.115,-0.023 0.231,-0.034 0.349,-0.034c0.118,0 0.234,0.011 0.349,0.034c0.116,0.023 0.228,0.057 0.336,0.102c0.109,0.045 0.212,0.1 0.31,0.165c0.09733,0.06533 0.18767,0.13967 0.271,0.223h0.001c1.38199,1.38299 3.04999,2.07399 5.00398,2.07399c4.71398,0 7.07097,-2.35799 7.07097,-7.07497c0,-4.67898 -2.31999,-7.03797 -6.95897,-7.07697c-0.035,0.002 -0.07,0.003 -0.105,0.003c-1.95099,0 -3.62199,0.691 -5.01098,2.07299l-29.00489,29.00089l5.00098,5.00198c3.78399,3.78399 5.68998,8.34397 5.71998,13.68095c0.002,0.04 0.004,0.079 0.004,0.119c0,5.38998 -1.90699,9.99096 -5.72098,13.80295c-3.81299,3.81199 -8.41397,5.71698 -13.80395,5.71698c-5.39198,0 -9.99396,-1.90599 -13.80595,-5.71798c-3.81199,-3.81199 -5.71798,-8.41297 -5.71798,-13.80195c0,-5.39198 1.90633,-9.99329 5.71898,-13.80395c0.08333,-0.08333 0.174,-0.15767 0.272,-0.223c0.097,-0.065 0.201,-0.12 0.309,-0.165c0.109,-0.045 0.221,-0.079 0.336,-0.102c0.115,-0.023 0.232,-0.034 0.349,-0.034c0.118,0 0.234,0.011 0.349,0.034c0.116,0.023 0.228,0.057 0.336,0.102c0.109,0.045 0.212,0.1 0.31,0.165c0.097,0.066 0.188,0.14 0.271,0.223l6.26998,6.26698c0.08333,0.08267 0.15767,0.173 0.223,0.271c0.06533,0.09733 0.12067,0.20033 0.166,0.309c0.045,0.109 0.079,0.221 0.102,0.336c0.023,0.115 0.034,0.231 0.034,0.349c0,0.118 -0.011,0.234 -0.034,0.349c-0.02267,0.11533 -0.05633,0.22733 -0.101,0.336c-0.045,0.109 -0.1,0.212 -0.166,0.31c-0.06467,0.09733 -0.13867,0.18767 -0.222,0.271c-1.38099,1.38399 -2.07099,3.05199 -2.07099,5.00598c0,4.71598 2.35799,7.07397 7.07397,7.07397c4.67898,0 7.03697,-2.31999 7.07597,-6.96197c-0.002,-0.035 -0.003,-0.07 -0.003,-0.105c0,-1.94899 -0.692,-3.61899 -2.07599,-5.01198l-28.99789,-28.99989l-5.00198,5.00198c-3.78999,3.78299 -8.35097,5.68898 -13.68495,5.71798c-0.04,0.003 -0.079,0.004 -0.119,0.004c-5.39198,0 -9.99296,-1.90699 -13.80495,-5.72098c-3.80999,-3.81265 -5.71498,-8.41497 -5.71498,-13.80695c0,-5.38998 1.90499,-9.99096 5.71598,-13.80195c3.81199,-3.81099 8.41297,-5.71698 13.80395,-5.71698c5.38898,0 9.99096,1.90499 13.80595,5.71498c0.084,0.083 0.158,0.173 0.223,0.271c0.066,0.09733 0.12133,0.20033 0.166,0.309c0.045,0.109 0.079,0.221 0.102,0.336c0.023,0.115 0.035,0.232 0.035,0.349c0,0.118 -0.011,0.234 -0.034,0.35c-0.023,0.115 -0.057,0.227 -0.102,0.336c-0.045,0.108 -0.1,0.211 -0.165,0.309c-0.065,0.098 -0.139,0.189 -0.222,0.272h-0.001l-6.27098,6.27498c-0.083,0.083 -0.173,0.157 -0.271,0.222c-0.098,0.066 -0.201,0.121 -0.309,0.166c-0.109,0.045 -0.221,0.079 -0.336,0.102c-0.115,0.023 -0.232,0.034 -0.349,0.034c-0.118,0 -0.234,-0.011 -0.35,-0.034c-0.11467,-0.02267 -0.22633,-0.05667 -0.335,-0.102c-0.109,-0.045 -0.212,-0.1 -0.31,-0.165c-0.098,-0.06533 -0.18833,-0.13933 -0.271,-0.222c-1.38499,-1.38299 -3.05299,-2.07499 -5.00598,-2.07499c-4.71598,0 -7.07397,2.35699 -7.07397,7.07097c0,4.68198 2.32132,7.04231 6.96397,7.08097c0.035,-0.002 0.07,-0.003 0.105,-0.003c1.95099,0 3.61999,-0.692 5.00798,-2.07499l29.00689,-28.99789l-5.00498,-5.00398c-3.80999,-3.81599 -5.71698,-8.41597 -5.71798,-13.80195v-0.01c0.001,-5.38698 1.90699,-9.98496 5.71798,-13.79495c3.81132,-3.81199 8.41197,-5.71798 13.80195,-5.71798c5.39198,0 9.99296,1.90599 13.80495,5.71798c3.81199,3.81199 5.71798,8.41297 5.71798,13.80295c0,5.39098 -1.90499,9.99296 -5.71498,13.80495c-0.08333,0.08333 -0.174,0.15767 -0.272,0.223c-0.097,0.065 -0.201,0.12 -0.309,0.165c-0.109,0.045 -0.221,0.079 -0.336,0.102c-0.115,0.023 -0.232,0.035 -0.349,0.035c-0.118,0 -0.234,-0.012 -0.35,-0.035c-0.115,-0.022 -0.227,-0.056 -0.335,-0.101c-0.109,-0.045 -0.212,-0.101 -0.31,-0.166c-0.098,-0.065 -0.188,-0.139 -0.272,-0.223l-6.27198,-6.26998c-0.168,-0.168 -0.29733,-0.36167 -0.388,-0.581c-0.091,-0.219 -0.137,-0.448 -0.137,-0.685c0,-0.238 0.046,-0.466 0.137,-0.685c0.09,-0.22 0.22,-0.413 0.388,-0.581zM274.99,203.60766l-15.19194,-15.19594l15.19294,-15.19194l15.19394,15.19794z" style="fill: rgb(255, 255, 255); --darkreader-inline-fill:#e8e6e3;" data-darkreader-inline-fill=""></path></g></g></g></g><g class="watermark-group" style="opacity:0.040000010281801224"><path class="watermark-path" d="M129.52,370.3a11.88,11.88,0,0,1,2.58,5.58,12,12,0,0,1,.11,3,11.81,11.81,0,0,1-.64,2.93,12.34,12.34,0,0,1-1.41,2.72,11.65,11.65,0,0,1-2.13,2.32,12,12,0,0,1-2.64,1.69,13,13,0,0,1-2.91.9,12.47,12.47,0,0,1-3,.12,12.17,12.17,0,0,1-2.93-.64,11.8,11.8,0,0,1-2.72-1.38,12.19,12.19,0,0,1-4-4.79,11.85,11.85,0,0,1-.89-2.92,12.14,12.14,0,0,1-.13-3,11.54,11.54,0,0,1,.64-2.92,11.67,11.67,0,0,1,3.5-5,11.44,11.44,0,0,1,2.67-1.69,11.64,11.64,0,0,1,2.92-.91,10.71,10.71,0,0,1,3-.12,11.68,11.68,0,0,1,5.66,2,11.7,11.7,0,0,1,2.34,2.12m-1.4,8.76a13,13,0,0,1-1.22,2.32,9.68,9.68,0,0,1-1.81,2,7.44,7.44,0,0,1-2.38,1.37,6.17,6.17,0,0,1-5.11-.46,8.73,8.73,0,0,1-3.85-4.58,6.69,6.69,0,0,1-.34-2.66,6.09,6.09,0,0,1,.77-2.47,7.15,7.15,0,0,1,1.75-2.11,9.58,9.58,0,0,1,1.09-.81,8.23,8.23,0,0,1,1.12-.63,8.14,8.14,0,0,1,1.19-.46,12.71,12.71,0,0,1,1.32-.37l2,2.38a12.83,12.83,0,0,0-1.56.17,7.86,7.86,0,0,0-1.23.32,4.5,4.5,0,0,0-1,.49,6.41,6.41,0,0,0-.93.67,4.49,4.49,0,0,0-1.15,1.39,3.87,3.87,0,0,0-.45,1.58,4.12,4.12,0,0,0,.26,1.63,6.11,6.11,0,0,0,2.36,2.82,4.43,4.43,0,0,0,1.57.53,3.91,3.91,0,0,0,1.62-.17,4.71,4.71,0,0,0,1.57-.89,10.5,10.5,0,0,0,.83-.79,5.71,5.71,0,0,0,.65-.93,10.13,10.13,0,0,0,.54-1.14,12.24,12.24,0,0,0,.44-1.49l2,2.33m-14.46,4.55a8.86,8.86,0,0,0,2.78,2.22,9,9,0,0,0,3.29.94,9.15,9.15,0,0,0,3.39-.37,8.68,8.68,0,0,0,3.11-1.69,8.8,8.8,0,0,0,2.22-2.78,9.15,9.15,0,0,0,1-3.29,8.95,8.95,0,0,0-4.83-8.76,9,9,0,0,0-6.73-.57,9,9,0,0,0-5.33,4.47,8.94,8.94,0,0,0-.57,6.71,8.76,8.76,0,0,0,1.7,3.12" style="fill: rgb(255, 255, 255); --darkreader-inline-fill:#e8e6e3;" data-darkreader-inline-fill=""></path><path class="watermark-path" d="M147,349c-.48.12-1.09.31-1.82.57a24.37,24.37,0,0,0-2.4,1A28.35,28.35,0,0,0,140,352a20.72,20.72,0,0,0-2.71,1.94c-.7.59-1.28,1.11-1.74,1.57a15.07,15.07,0,0,0-1.1,1.22,4.09,4.09,0,0,0-.59.92,2.32,2.32,0,0,0-.22.64,1.16,1.16,0,0,0,0,.47,1.83,1.83,0,0,0,.18.29,1.15,1.15,0,0,0,1,.37,5.54,5.54,0,0,0,1.51-.38q.87-.35,1.95-.9l2.26-1.18q1.2-.65,2.49-1.29c.87-.44,1.73-.83,2.59-1.17a18.94,18.94,0,0,1,2.6-.81,9.27,9.27,0,0,1,2.46-.29,6.25,6.25,0,0,1,2.24.49,5.12,5.12,0,0,1,1.89,1.47,6.35,6.35,0,0,1,1.41,2.61,6,6,0,0,1,.09,2.6,8.3,8.3,0,0,1-.9,2.52,17.79,17.79,0,0,1-1.62,2.37,23.92,23.92,0,0,1-2,2.15c-.72.67-1.41,1.29-2.09,1.87a33.79,33.79,0,0,1-5.33,3.7,32.29,32.29,0,0,1-4.91,2.28l-3.61-4.3a21.38,21.38,0,0,0,5.39-1.87,27.2,27.2,0,0,0,5.4-3.56,21.59,21.59,0,0,0,2.38-2.27,8.67,8.67,0,0,0,1.18-1.7,2.32,2.32,0,0,0,.27-1.19,1.34,1.34,0,0,0-.28-.74,1.21,1.21,0,0,0-1-.42,4.32,4.32,0,0,0-1.55.34,15.77,15.77,0,0,0-2,.88c-.72.37-1.48.77-2.27,1.21l-2.45,1.3c-.85.45-1.7.85-2.56,1.21a22.37,22.37,0,0,1-2.54.86,10,10,0,0,1-2.43.32,5.76,5.76,0,0,1-2.2-.45,5,5,0,0,1-1.89-1.45,6.12,6.12,0,0,1-1.31-2.41,6,6,0,0,1-.1-2.41,8.28,8.28,0,0,1,.81-2.38,14.06,14.06,0,0,1,1.49-2.24,22.37,22.37,0,0,1,1.85-2.05q1-1,2-1.77c.7-.59,1.44-1.15,2.23-1.7s1.62-1.06,2.44-1.53,1.63-.91,2.43-1.3,1.58-.75,2.3-1L147,349" style="fill: rgb(255, 255, 255); --darkreader-inline-fill:#e8e6e3;" data-darkreader-inline-fill=""></path><path class="watermark-path" d="M186.76,337.57l-10.6-12.63,3.92,18.24-4.66,3.91-17.27-7,10.6,12.63-4.86,4.07-15.09-18,6.59-5.54,18.69,7.52-4.15-19.71,6.57-5.52,15.09,18-4.83,4.05" style="fill: rgb(255, 255, 255); --darkreader-inline-fill:#e8e6e3;" data-darkreader-inline-fill=""></path><path class="watermark-path" d="M208.84,313.24l-10,8.42,1.16,4.82L194.56,331l-5.68-25.89,5.42-4.55,24.51,10.09-5.42,4.55-4.55-2m-11.23,3.45,6.57-5.52-8.83-3.87,2.26,9.39" style="fill: rgb(255, 255, 255); --darkreader-inline-fill:#e8e6e3;" data-darkreader-inline-fill=""></path><path class="watermark-path" d="M227.49,281.38c-.48.12-1.09.31-1.82.57a24.37,24.37,0,0,0-2.4,1,26.11,26.11,0,0,0-2.7,1.47,20.72,20.72,0,0,0-2.71,1.94c-.7.59-1.28,1.11-1.74,1.57a13.39,13.39,0,0,0-1.1,1.22,4.29,4.29,0,0,0-.59.91,2.48,2.48,0,0,0-.22.65,1.16,1.16,0,0,0,0,.47,1.83,1.83,0,0,0,.18.29,1.15,1.15,0,0,0,1,.37,5.54,5.54,0,0,0,1.51-.38q.87-.34,2-.9l2.26-1.18q1.2-.64,2.49-1.29c.87-.44,1.73-.83,2.59-1.17a18.94,18.94,0,0,1,2.6-.81,9.27,9.27,0,0,1,2.46-.29,6.08,6.08,0,0,1,2.24.49,5.09,5.09,0,0,1,1.89,1.46,6.47,6.47,0,0,1,1.41,2.61,6.07,6.07,0,0,1,.09,2.61,8.3,8.3,0,0,1-.9,2.52,16.32,16.32,0,0,1-1.63,2.36,21.41,21.41,0,0,1-2,2.16c-.72.67-1.41,1.29-2.1,1.86a33.36,33.36,0,0,1-5.32,3.71,31.92,31.92,0,0,1-4.92,2.28l-3.6-4.3a21.38,21.38,0,0,0,5.39-1.87,27.2,27.2,0,0,0,5.4-3.56,21.59,21.59,0,0,0,2.38-2.27,8.67,8.67,0,0,0,1.18-1.7A2.32,2.32,0,0,0,231,293a1.34,1.34,0,0,0-.28-.74,1.21,1.21,0,0,0-1-.42,4.32,4.32,0,0,0-1.55.34,16.54,16.54,0,0,0-2,.88c-.71.37-1.47.77-2.26,1.21l-2.46,1.3c-.84.44-1.7.85-2.55,1.21a24.53,24.53,0,0,1-2.54.86A10,10,0,0,1,214,298a5.76,5.76,0,0,1-2.2-.45,5,5,0,0,1-1.89-1.45,6.12,6.12,0,0,1-1.31-2.41,5.78,5.78,0,0,1-.1-2.41,8,8,0,0,1,.81-2.38,14.61,14.61,0,0,1,1.49-2.25,22.26,22.26,0,0,1,1.85-2q1-1,2-1.77c.7-.59,1.44-1.15,2.23-1.7s1.62-1.06,2.44-1.53,1.63-.91,2.43-1.31,1.58-.74,2.3-1l3.5,4.16" style="fill: rgb(255, 255, 255); --darkreader-inline-fill:#e8e6e3;" data-darkreader-inline-fill=""></path><path class="watermark-path" d="M261.64,274.74l-6.29-7.5L243,277.61l6.3,7.5-4.86,4.07-15.09-18,4.85-4.08,5.49,6.55L252,263.3l-5.49-6.55,4.86-4.07,15.09,18-4.86,4.08" style="fill: rgb(255, 255, 255); --darkreader-inline-fill:#e8e6e3;" data-darkreader-inline-fill=""></path><path class="watermark-path" d="M272.18,265.9l-15.09-18,4.86-4.08,15.09,18-4.86,4.08" style="fill: rgb(255, 255, 255); --darkreader-inline-fill:#e8e6e3;" data-darkreader-inline-fill=""></path><path class="watermark-path" d="M299.65,242.85l-22.51-2.18L287.51,253l-4.85,4.08-15.1-18,5.28-4.43,22.56,2.22L285,224.5l4.83-4.06,15.09,18-5.26,4.42" style="fill: rgb(255, 255, 255); --darkreader-inline-fill:#e8e6e3;" data-darkreader-inline-fill=""></path><path class="watermark-path" d="M306.68,205.52a31.88,31.88,0,0,1,5.29-3.66,34.48,34.48,0,0,1,5.14-2.35l3.69,4.39a20.77,20.77,0,0,0-2.37.61,20.47,20.47,0,0,0-2.61,1,25.12,25.12,0,0,0-2.76,1.49,23.9,23.9,0,0,0-2.8,2,20.42,20.42,0,0,0-2.8,2.77,12.77,12.77,0,0,0-1.64,2.52,7,7,0,0,0-.68,2.24,6,6,0,0,0,.66,3.64,8.16,8.16,0,0,0,.94,1.38,9.12,9.12,0,0,0,1.08,1.07,6.39,6.39,0,0,0,1.47.91,6.73,6.73,0,0,0,1.88.48,6.54,6.54,0,0,0,2.28-.18,11.67,11.67,0,0,0,2.74-1.07,19.38,19.38,0,0,0,3.18-2.22c.57-.48,1.06-.92,1.46-1.31a14.57,14.57,0,0,0,1-1.13,11.46,11.46,0,0,0,.81-1.05l.74-1.09-1.82-2.17-5.45,4.57-3.31-3.94,10.31-8.65,7.71,9.19a29,29,0,0,1-1.67,2.43q-1,1.26-2.1,2.52c-.74.84-1.5,1.65-2.3,2.44s-1.58,1.5-2.33,2.14a31,31,0,0,1-3.59,2.61,22.55,22.55,0,0,1-3.64,1.83,15.64,15.64,0,0,1-3.63.89,10.72,10.72,0,0,1-3.49-.15,10.45,10.45,0,0,1-3.28-1.33,12.54,12.54,0,0,1-3-2.67,12,12,0,0,1-2.08-3.44,10.45,10.45,0,0,1-.71-3.5,11.14,11.14,0,0,1,.51-3.51,15.72,15.72,0,0,1,1.56-3.43,21.62,21.62,0,0,1,2.42-3.28,30.3,30.3,0,0,1,3.15-3" style="fill: rgb(255, 255, 255); --darkreader-inline-fill:#e8e6e3;" data-darkreader-inline-fill=""></path><path class="watermark-path" d="M336.91,211.59l-15.1-18,4.86-4.08,11.79,14,13.13-11,3.31,3.94-18,15.1" style="fill: rgb(255, 255, 255); --darkreader-inline-fill:#e8e6e3;" data-darkreader-inline-fill=""></path><path class="watermark-path" d="M374.54,164.71a12.28,12.28,0,0,1,2.59,4.81,10.44,10.44,0,0,1,0,5,14.62,14.62,0,0,1-2.33,5,25.55,25.55,0,0,1-4.56,4.85,26.07,26.07,0,0,1-5.6,3.67,14.79,14.79,0,0,1-5.38,1.43,10.43,10.43,0,0,1-4.94-.89,13.24,13.24,0,0,1-6.87-8.18,10.48,10.48,0,0,1,0-5,14.51,14.51,0,0,1,2.36-5,25.23,25.23,0,0,1,4.57-4.89,25,25,0,0,1,5.59-3.64,14.45,14.45,0,0,1,5.35-1.43,10.31,10.31,0,0,1,4.93.92,12.22,12.22,0,0,1,4.28,3.38m-4.91,4.11a8.36,8.36,0,0,0-2-1.72,5.5,5.5,0,0,0-2.65-.85,7.72,7.72,0,0,0-3.32.57,14.49,14.49,0,0,0-4,2.52,16.72,16.72,0,0,0-2.38,2.4,10.15,10.15,0,0,0-1.39,2.24,6.71,6.71,0,0,0-.56,2.1,5.69,5.69,0,0,0,.1,1.9,6.21,6.21,0,0,0,.61,1.69,9.85,9.85,0,0,0,1,1.44,10.48,10.48,0,0,0,1.26,1.23,6.67,6.67,0,0,0,1.57.92,6.1,6.1,0,0,0,1.85.41,6.8,6.8,0,0,0,2.15-.2,11.06,11.06,0,0,0,2.45-1,17.67,17.67,0,0,0,2.77-1.94,14.39,14.39,0,0,0,3.18-3.52,7.74,7.74,0,0,0,1.14-3.17,5.54,5.54,0,0,0-.37-2.74,8.52,8.52,0,0,0-1.36-2.3" style="fill: rgb(255, 255, 255); --darkreader-inline-fill:#e8e6e3;" data-darkreader-inline-fill=""></path><path class="watermark-path" d="M382.66,141.76A32.3,32.3,0,0,1,388,138.1a34.12,34.12,0,0,1,5.15-2.35l3.69,4.4a19.62,19.62,0,0,0-2.37.6,22.08,22.08,0,0,0-2.61,1,26,26,0,0,0-2.77,1.49,23.9,23.9,0,0,0-2.8,2,21,21,0,0,0-2.8,2.78,13.19,13.19,0,0,0-1.64,2.51,7.29,7.29,0,0,0-.68,2.24,6.36,6.36,0,0,0,.06,2,5.8,5.8,0,0,0,.61,1.68,8.12,8.12,0,0,0,.93,1.38,9.16,9.16,0,0,0,1.08,1.08,6.56,6.56,0,0,0,1.48.9,6,6,0,0,0,1.87.48,6.76,6.76,0,0,0,2.28-.17,12,12,0,0,0,2.74-1.08,18.57,18.57,0,0,0,3.18-2.22c.58-.48,1.06-.92,1.46-1.31s.75-.77,1.05-1.12.57-.72.81-1.06l.73-1.09-1.82-2.17-5.45,4.57-3.3-3.94,10.3-8.65,7.71,9.19a29,29,0,0,1-1.67,2.43q-1,1.26-2.1,2.52c-.73.84-1.5,1.66-2.3,2.44s-1.57,1.5-2.33,2.14a31,31,0,0,1-3.59,2.61,22.15,22.15,0,0,1-3.64,1.83,15.56,15.56,0,0,1-3.62.89,11,11,0,0,1-3.49-.14,10.84,10.84,0,0,1-3.28-1.33,12.82,12.82,0,0,1-3-2.68,12.12,12.12,0,0,1-2.08-3.43A10.71,10.71,0,0,1,375,155a11.18,11.18,0,0,1,.51-3.51,15.51,15.51,0,0,1,1.57-3.43,21.44,21.44,0,0,1,2.42-3.28,30.19,30.19,0,0,1,3.14-3" style="fill: rgb(255, 255, 255); --darkreader-inline-fill:#e8e6e3;" data-darkreader-inline-fill=""></path><path class="watermark-path" d="M428.63,119.31a12.26,12.26,0,0,1,2.59,4.82,10.44,10.44,0,0,1,0,5,14.53,14.53,0,0,1-2.34,5,25.29,25.29,0,0,1-4.56,4.86,26,26,0,0,1-5.59,3.67,14.84,14.84,0,0,1-5.38,1.43,10.61,10.61,0,0,1-4.95-.89,12.15,12.15,0,0,1-4.3-3.37,12,12,0,0,1-2.56-4.81,10.48,10.48,0,0,1,0-5,14.39,14.39,0,0,1,2.35-5,27.89,27.89,0,0,1,10.16-8.53,14.49,14.49,0,0,1,5.36-1.43,10.27,10.27,0,0,1,4.92.92,12.21,12.21,0,0,1,4.28,3.37m-4.91,4.12a8.17,8.17,0,0,0-2-1.72,5.58,5.58,0,0,0-2.65-.86,7.86,7.86,0,0,0-3.31.58,14.49,14.49,0,0,0-4,2.52,16.21,16.21,0,0,0-2.38,2.4,9.85,9.85,0,0,0-1.4,2.24,7,7,0,0,0-.56,2.1,6,6,0,0,0,.1,1.9,6.23,6.23,0,0,0,.62,1.69,8.49,8.49,0,0,0,1,1.44,9.18,9.18,0,0,0,1.26,1.23,6.67,6.67,0,0,0,1.57.92,6,6,0,0,0,1.84.41,6.86,6.86,0,0,0,2.16-.2,11.26,11.26,0,0,0,2.45-1,17.62,17.62,0,0,0,2.76-1.94,14.67,14.67,0,0,0,3.19-3.52,7.71,7.71,0,0,0,1.13-3.17,5.53,5.53,0,0,0-.36-2.74,8.55,8.55,0,0,0-1.37-2.3" style="fill: rgb(255, 255, 255); --darkreader-inline-fill:#e8e6e3;" data-darkreader-inline-fill=""></path></g></svg>